<svg preserveAspectRatio="none" width="100%" height="100%" overflow="visible" style="display: block;" viewBox="0 0 709 262" fill="none" xmlns="http://www.w3.org/2000/svg">
<path id="Vector" d="M549.021 261.996C471.17 261.996 410.215 216.14 359.17 173.14L354.536 169.212L349.83 173.14C298.785 215.997 237.831 261.996 160.051 261.996C151.828 261.975 143.614 261.451 135.455 260.425C58.1031 250.639 0 194.997 0 130.998C0 66.9992 58.3169 11.3572 135.455 1.57162C143.611 0.512629 151.827 -0.0122821 160.051 0.000218071C196.85 0.53253 232.92 10.3595 264.921 28.5712L222.788 68.5706C203.468 58.1792 181.973 52.5017 160.051 51.9994C107.722 51.9994 65.161 87.7132 65.161 131.284C65.161 174.855 107.936 210.568 160.051 210.568C212.165 210.568 261.713 172.355 303.99 136.57L371.717 78.7847C421.621 38.0711 477.586 0.214505 549.021 0.214505C557.221 0.199607 565.413 0.724534 573.545 1.78591C650.897 11.5715 709 67.2135 709 131.213C709 195.212 650.683 250.854 573.545 260.639C565.406 261.593 557.215 262.047 549.021 261.996ZM549.021 51.7137C496.835 51.7137 447.287 89.9274 405.01 125.713L398.737 130.998L405.01 136.284C447.287 171.998 496.835 210.283 549.021 210.283C601.206 210.283 643.839 174.569 643.839 130.998C643.839 87.4275 601.563 51.7137 549.021 51.7137Z" fill="var(--fill-0, #1ECAD3)" fill-opacity="0.05"/>
</svg>
