<svg preserveAspectRatio="none" width="100%" height="100%" overflow="visible" style="display: block;" viewBox="0 0 240 64" fill="none" xmlns="http://www.w3.org/2000/svg">
<g id="Reacon Logo 2">
<path id="Vector" d="M173.304 46.672C164.568 46.672 157.728 41.536 152 36.72L151.48 36.28L150.952 36.72C145.224 41.52 138.384 46.672 129.656 46.672C128.733 46.6697 127.812 46.6109 126.896 46.496C118.216 45.4 111.696 39.168 111.696 32C111.696 24.832 118.24 18.6 126.896 17.504C127.811 17.3854 128.733 17.3266 129.656 17.328C133.785 17.3876 137.833 18.4883 141.424 20.528L136.696 25.008C134.528 23.8441 132.116 23.2083 129.656 23.152C123.784 23.152 119.008 27.152 119.008 32.032C119.008 36.912 123.808 40.912 129.656 40.912C135.504 40.912 141.064 36.632 145.808 32.624L153.408 26.152C159.008 21.592 165.288 17.352 173.304 17.352C174.224 17.3503 175.144 17.4091 176.056 17.528C184.736 18.624 191.256 24.856 191.256 32.024C191.256 39.192 184.712 45.424 176.056 46.52C175.143 46.6269 174.224 46.6776 173.304 46.672ZM173.304 23.12C167.448 23.12 161.888 27.4 157.144 31.408L156.44 32L157.144 32.592C161.888 36.592 167.448 40.88 173.304 40.88C179.16 40.88 183.944 36.88 183.944 32C183.944 27.12 179.2 23.12 173.304 23.12Z" fill="var(--fill-0, #1ECAD3)"/>
<path id="Vector_2" d="M214.88 17.856C207.888 17.856 202.832 20.384 200.208 25.192V19.24C200.207 19.1901 200.196 19.1409 200.175 19.0957C200.154 19.0505 200.123 19.0104 200.086 18.9778C200.048 18.9453 200.003 18.9212 199.956 18.9071C199.908 18.893 199.857 18.8892 199.808 18.896L193.216 19.784C193.131 19.794 193.053 19.836 192.998 19.9014C192.943 19.9668 192.915 20.0507 192.92 20.136V44.936C192.919 44.9825 192.927 45.0288 192.945 45.072C192.962 45.1152 192.988 45.1544 193.021 45.1873C193.054 45.2202 193.093 45.2461 193.136 45.2634C193.179 45.2807 193.225 45.2891 193.272 45.288H200C200.046 45.2892 200.092 45.2808 200.135 45.2634C200.178 45.246 200.216 45.22 200.249 45.1869C200.281 45.1539 200.306 45.1146 200.322 45.0714C200.339 45.0282 200.346 44.9821 200.344 44.936V33.864C200.344 27.616 204.608 23.8 211.544 23.504C219.824 23.16 222.648 28.208 222.648 34.256V44.912C222.646 44.9578 222.653 45.0035 222.67 45.0463C222.686 45.0891 222.711 45.1279 222.744 45.1603C222.776 45.1928 222.815 45.218 222.858 45.2345C222.9 45.251 222.946 45.2583 222.992 45.256H229.688C229.733 45.2571 229.779 45.2489 229.821 45.232C229.863 45.2151 229.902 45.1898 229.934 45.1577C229.966 45.1255 229.991 45.0872 230.008 45.0449C230.025 45.0027 230.033 44.9575 230.032 44.912V32.472C230.08 22.872 224.824 17.856 214.92 17.856" fill="var(--fill-0, #1ECAD3)"/>
<path id="Vector_3" d="M40.8 29.448C41.392 25.088 45.904 22.4 52.544 22.4C59.04 22.4 64.144 25.032 64.24 29.488L40.8 29.448ZM71.72 32.224C71.72 23.304 64.52 17.904 52.52 17.904C41.168 17.904 33.488 23.008 33.488 32.424C33.464 41.144 40.848 46.4 52.888 46.4C61.216 46.4 67.064 44 70.68 39.512C70.7185 39.466 70.7457 39.4117 70.7595 39.3533C70.7732 39.2949 70.7731 39.2341 70.7591 39.1757C70.7451 39.1174 70.7176 39.0632 70.6789 39.0174C70.6401 38.9716 70.5912 38.9355 70.536 38.912L65.384 36.512C65.3087 36.479 65.2249 36.4705 65.1445 36.4877C65.0641 36.505 64.9912 36.547 64.936 36.608C62.536 39.584 58.44 41.12 53.088 41.12C45.752 41.12 41.344 38.448 40.752 33.92H71.328C71.3802 33.92 71.4318 33.9096 71.4799 33.8894C71.528 33.8692 71.5715 33.8396 71.608 33.8024C71.6446 33.7651 71.6733 33.721 71.6925 33.6725C71.7117 33.624 71.7211 33.5721 71.72 33.52V32.224Z" fill="var(--fill-0, #1ECAD3)"/>
<path id="Vector_4" d="M102.552 34.008C102.552 38.864 97.056 41.84 89.272 41.84C84.024 41.84 81.144 40.552 81.144 38.024C81.144 35.496 83.032 34.208 89.272 33.808L102.552 33.008V34.008ZM109.936 36.584V29.6C109.936 22.016 104.336 18.048 92.84 18.048C82.584 18.048 75.592 21.768 74.304 27.464C74.2961 27.5247 74.3023 27.5864 74.3221 27.6443C74.3418 27.7022 74.3746 27.7549 74.4179 27.7981C74.4611 27.8414 74.5138 27.8742 74.5717 27.8939C74.6296 27.9137 74.6913 27.9198 74.752 27.912L82.832 26.312C82.928 26.312 82.976 26.264 83.032 26.16C84.568 24.032 87.936 22.888 92.84 22.888C98.84 22.888 102.44 24.92 102.44 28.544V29.136L87.176 29.936C81.032 30.288 78.376 31.224 76.424 32.512C75.4688 33.1423 74.6898 34.0055 74.1607 35.0203C73.6317 36.0351 73.3698 37.168 73.4 38.312C73.4 43.52 78.352 46.44 86.576 46.44C94.8 46.44 99.96 44.312 102.64 40.192C102.628 41.8341 102.727 43.4752 102.936 45.104C102.949 45.186 102.991 45.2607 103.054 45.3148C103.117 45.369 103.197 45.3992 103.28 45.4H110.024C110.079 45.4008 110.133 45.3888 110.183 45.3649C110.232 45.3411 110.275 45.3059 110.309 45.2624C110.342 45.2189 110.365 45.1682 110.375 45.1143C110.385 45.0604 110.383 45.0048 110.368 44.952C110.035 42.1731 109.902 39.374 109.968 36.576" fill="var(--fill-0, #1ECAD3)"/>
<path id="Vector_5" d="M16.536 26.624V19.344C16.5335 19.2837 16.5181 19.2247 16.491 19.1709C16.4638 19.117 16.4255 19.0696 16.3785 19.0317C16.3316 18.9939 16.2771 18.9665 16.2187 18.9513C16.1604 18.9362 16.0994 18.9337 16.04 18.944L10.24 19.784C10.1453 19.8006 10.0592 19.8496 9.99648 19.9225C9.93376 19.9954 9.89825 20.0878 9.896 20.184V44.912C9.89494 44.9641 9.90429 45.016 9.92351 45.0645C9.94273 45.113 9.97144 45.1571 10.0079 45.1944C10.0445 45.2316 10.088 45.2612 10.1361 45.2814C10.1842 45.3016 10.2358 45.312 10.288 45.312H16.88C16.9328 45.3131 16.9853 45.3035 17.0344 45.2838C17.0834 45.2641 17.1279 45.2346 17.1653 45.1973C17.2026 45.1599 17.2321 45.1154 17.2518 45.0664C17.2715 45.0173 17.2811 44.9648 17.28 44.912V36.04C17.28 32.472 18.08 29.496 20.104 27.464C21.84 25.6 24.216 24.592 28 24.592C29.1294 24.5863 30.2569 24.6854 31.368 24.888C31.4269 24.8996 31.4877 24.8983 31.5461 24.8842C31.6045 24.8701 31.6591 24.8435 31.7063 24.8062C31.7534 24.769 31.7919 24.7219 31.8191 24.6684C31.8464 24.6148 31.8617 24.556 31.864 24.496V18.648C31.8686 18.55 31.8355 18.454 31.7716 18.3796C31.7076 18.3052 31.6176 18.2581 31.52 18.248C30.5196 18.0945 29.5079 18.0276 28.496 18.048C22.544 18.048 18.096 21.424 16.552 26.624" fill="var(--fill-0, #1ECAD3)"/>
</g>
</svg>
