<svg preserveAspectRatio="none" width="100%" height="100%" overflow="visible" style="display: block;" viewBox="0 0 42 42" fill="none" xmlns="http://www.w3.org/2000/svg">
<g id="Twitter Icon">
<g id="Social Media Icon">
</g>
<path id="Twitter" d="M24.5315 12.4849V12.4811H25.5162L25.876 12.553C26.1159 12.5996 26.3336 12.6608 26.5293 12.7364C26.725 12.8121 26.9143 12.9003 27.0974 13.0012C27.2804 13.102 27.4464 13.2048 27.5954 13.3094C27.7431 13.4128 27.8757 13.5224 27.9931 13.6384C28.1092 13.7557 28.2903 13.7859 28.5365 13.7292C28.7827 13.6725 29.0478 13.5937 29.3318 13.4928C29.6159 13.392 29.8967 13.2785 30.1745 13.1524C30.4522 13.0264 30.6214 12.9463 30.682 12.9123C30.7413 12.877 30.7729 12.8581 30.7766 12.8556L30.7804 12.8499L30.7993 12.8404L30.8183 12.831L30.8372 12.8215L30.8562 12.8121L30.8599 12.8064L30.8656 12.8026L30.8713 12.7988L30.8751 12.7932L30.894 12.7875L30.913 12.7837L30.9092 12.8121L30.9035 12.8404L30.894 12.8688L30.8846 12.8972L30.8751 12.9161L30.8656 12.935L30.8562 12.9633C30.8499 12.9822 30.8435 13.0075 30.8372 13.039C30.8309 13.0705 30.7709 13.1966 30.6573 13.4172C30.5437 13.6378 30.4017 13.8616 30.2313 14.0885C30.0608 14.3154 29.9081 14.4868 29.773 14.6028C29.6367 14.7201 29.5464 14.802 29.5022 14.8486C29.4581 14.8965 29.4044 14.9407 29.3413 14.981L29.2466 15.0434L29.2277 15.0529L29.2087 15.0623L29.205 15.068L29.1993 15.0718L29.1936 15.0756L29.1898 15.0812L29.1709 15.0907L29.1519 15.1001L29.1482 15.1058L29.1425 15.1096L29.1368 15.1134L29.133 15.1191L29.1292 15.1247L29.1235 15.1285L29.1178 15.1323L29.114 15.138H29.2087L29.7389 15.0245C30.0924 14.9489 30.4301 14.8575 30.752 14.7503L31.2633 14.5801L31.3201 14.5612L31.3485 14.5518L31.3674 14.5423L31.3864 14.5329L31.4053 14.5234L31.4242 14.5139L31.4621 14.5083L31.5 14.5045V14.5423L31.4905 14.5461L31.481 14.5518L31.4773 14.5574L31.4716 14.5612L31.4659 14.565L31.4621 14.5707L31.4583 14.5763L31.4526 14.5801L31.447 14.5839L31.4432 14.5896L31.4394 14.5953L31.4337 14.599L31.4242 14.6179L31.4148 14.6369L31.4091 14.6406C31.4066 14.6444 31.3264 14.7516 31.1686 14.9621C31.0108 15.1739 30.9256 15.281 30.913 15.2836C30.9004 15.2874 30.8827 15.3063 30.8599 15.3403C30.8385 15.3756 30.7047 15.5162 30.4585 15.762C30.2123 16.0078 29.9712 16.2265 29.7352 16.4182C29.4978 16.611 29.3779 16.848 29.3754 17.1292C29.3716 17.409 29.3571 17.7255 29.3318 18.0784C29.3066 18.4314 29.2592 18.8128 29.1898 19.2225C29.1204 19.6322 29.0131 20.0955 28.8679 20.6124C28.7227 21.1292 28.546 21.6335 28.3377 22.1251C28.1294 22.6168 27.9116 23.058 27.6844 23.4488C27.4571 23.8396 27.2489 24.1706 27.0595 24.4416C26.8701 24.7126 26.6776 24.9679 26.4819 25.2074C26.2863 25.447 26.0389 25.7168 25.7397 26.0168C25.4392 26.3156 25.2751 26.4794 25.2473 26.5084C25.2183 26.5362 25.0946 26.6396 24.8762 26.8186C24.6591 26.9988 24.4255 27.1791 24.1755 27.3594C23.9269 27.5384 23.6984 27.6878 23.4901 27.8075C23.2818 27.9273 23.0306 28.0641 22.7364 28.2179C22.4435 28.3729 22.1267 28.5167 21.7858 28.649C21.445 28.7814 21.0852 28.9043 20.7065 29.0178C20.3278 29.1312 19.9617 29.2195 19.6082 29.2825C19.2547 29.3455 18.8539 29.3991 18.4058 29.4432L17.7335 29.5094V29.5189H16.5027V29.5094L16.3417 29.5C16.2344 29.4937 16.1461 29.4874 16.0766 29.4811C16.0072 29.4748 15.7452 29.4401 15.2908 29.3771C14.8363 29.314 14.4797 29.251 14.2209 29.188C13.9621 29.1249 13.5771 29.0052 13.0658 28.8287C12.5545 28.6522 12.1171 28.4738 11.7535 28.2935C11.3912 28.1145 11.164 28.001 11.0718 27.9531C10.981 27.9065 10.8787 27.8485 10.7651 27.7792L10.5947 27.6752L10.5909 27.6695L10.5852 27.6657L10.5795 27.6619L10.5757 27.6563L10.5568 27.6468L10.5379 27.6374L10.5341 27.6317L10.5284 27.6279L10.5227 27.6241L10.5189 27.6184L10.5151 27.6128L10.5094 27.609H10.5V27.5712L10.5189 27.5749L10.5379 27.5806L10.6231 27.5901C10.6799 27.5964 10.8345 27.6058 11.087 27.6184C11.3395 27.6311 11.6077 27.6311 11.8918 27.6184C12.1758 27.6058 12.4662 27.5775 12.7628 27.5333C13.0595 27.4892 13.4098 27.4136 13.8138 27.3064C14.2178 27.1993 14.5889 27.0719 14.9272 26.9245C15.2643 26.7757 15.5041 26.6648 15.6468 26.5916C15.7882 26.5198 16.004 26.3861 16.2944 26.1908L16.7299 25.8976L16.7337 25.892L16.7394 25.8882L16.7451 25.8844L16.7489 25.8787L16.7526 25.8731L16.7583 25.8693L16.764 25.8655L16.7678 25.8598L16.7867 25.8542L16.8057 25.8504L16.8094 25.8315L16.8151 25.8126L16.8208 25.8088L16.8246 25.8031L16.6731 25.7936C16.5721 25.7873 16.4743 25.781 16.3796 25.7747C16.2849 25.7684 16.1366 25.7401 15.9346 25.6896C15.7326 25.6392 15.5149 25.5636 15.2813 25.4627C15.0478 25.3619 14.8205 25.2421 14.5996 25.1034C14.3787 24.9648 14.219 24.8494 14.1205 24.7574C14.0233 24.6666 13.8971 24.538 13.7418 24.3716C13.5878 24.204 13.454 24.0319 13.3404 23.8554C13.2268 23.6789 13.1182 23.4753 13.0147 23.2446L12.8575 22.9004L12.848 22.8721L12.8386 22.8437L12.8329 22.8248L12.8291 22.8059L12.8575 22.8097L12.8859 22.8153L13.0942 22.8437C13.2331 22.8626 13.4508 22.8689 13.7475 22.8626C14.0442 22.8563 14.2493 22.8437 14.3629 22.8248C14.4765 22.8059 14.546 22.7933 14.5712 22.787L14.6091 22.7775L14.6564 22.7681L14.7038 22.7586L14.7076 22.7529L14.7132 22.7492L14.7189 22.7454L14.7227 22.7397L14.6848 22.7303L14.647 22.7208L14.6091 22.7113L14.5712 22.7019L14.5333 22.6924C14.5081 22.6861 14.4639 22.6735 14.4008 22.6546C14.3377 22.6357 14.1673 22.5664 13.8895 22.4466C13.6118 22.3269 13.3909 22.2102 13.2268 22.0968C13.0622 21.983 12.9054 21.8585 12.7571 21.7243C12.6094 21.5881 12.4472 21.4129 12.2705 21.1986C12.0938 20.9843 11.936 20.7353 11.7971 20.4516C11.6582 20.168 11.5541 19.8969 11.4847 19.6385C11.4155 19.3816 11.3699 19.1189 11.3483 18.8537L11.3142 18.4566L11.3332 18.4604L11.3521 18.4661L11.371 18.4755L11.39 18.485L11.4089 18.4945L11.4278 18.5039L11.7214 18.6363C11.917 18.7245 12.16 18.8002 12.4504 18.8632C12.7408 18.9262 12.9143 18.9609 12.9711 18.9672L13.0563 18.9767H13.2268L13.223 18.971L13.2173 18.9672L13.2116 18.9634L13.2078 18.9577L13.2041 18.9521L13.1984 18.9483L13.1927 18.9445L13.1889 18.9388L13.17 18.9294L13.151 18.9199L13.1472 18.9143L13.1415 18.9105L13.1359 18.9067L13.1321 18.901L13.1131 18.8916L13.0942 18.8821L13.0904 18.8764C13.0867 18.8739 13.0324 18.8336 12.9276 18.7554C12.824 18.676 12.7155 18.5733 12.6019 18.4472C12.4883 18.3211 12.3746 18.1887 12.261 18.0501C12.1472 17.9111 12.0458 17.7624 11.9581 17.6057C11.8697 17.4481 11.7763 17.2477 11.6778 17.0044C11.5806 16.7623 11.5067 16.5184 11.4562 16.2726C11.4058 16.0267 11.3774 15.7841 11.371 15.5445C11.3647 15.305 11.371 15.1001 11.39 14.93C11.4089 14.7598 11.4468 14.5675 11.5036 14.3532C11.5604 14.1389 11.6425 13.912 11.7498 13.6725L11.9107 13.3132L11.9202 13.2848L11.9296 13.2564L11.9353 13.2527L11.9391 13.247L11.9429 13.2413L11.9486 13.2375L11.9543 13.2413L11.9581 13.247L11.9618 13.2527L11.9675 13.2564L11.9732 13.2602L11.977 13.2659L11.9808 13.2716L11.9865 13.2754L11.9959 13.2943L12.0054 13.3132L12.0111 13.317L12.0149 13.3226L12.2705 13.6063C12.4409 13.7954 12.6429 14.0065 12.8764 14.2398C13.11 14.473 13.2394 14.594 13.2646 14.6028C13.2899 14.6129 13.3214 14.6419 13.3593 14.6898C13.3972 14.7365 13.5234 14.848 13.738 15.0245C13.9527 15.201 14.2335 15.4059 14.5807 15.6391C14.9279 15.8723 15.3129 16.1024 15.7358 16.3293C16.1587 16.5562 16.6132 16.7611 17.0992 16.9439C17.5852 17.1267 17.926 17.2464 18.1217 17.3031C18.3174 17.3599 18.6519 17.4324 19.1253 17.5206C19.5987 17.6089 19.9554 17.6656 20.1952 17.6908C20.4351 17.716 20.5992 17.7305 20.6875 17.7343L20.8201 17.7381L20.8163 17.7097L20.8106 17.6813L20.7727 17.445C20.7475 17.2874 20.7349 17.0668 20.7349 16.7831C20.7349 16.4995 20.757 16.2379 20.8012 15.9984C20.8453 15.7588 20.9116 15.5162 21 15.2703C21.0884 15.0245 21.1748 14.8272 21.2594 14.6785C21.3453 14.531 21.4576 14.3627 21.5965 14.1736C21.7353 13.9845 21.9152 13.7891 22.1361 13.5874C22.3571 13.3857 22.6095 13.206 22.8936 13.0484C23.1776 12.8909 23.4396 12.7711 23.6794 12.6891C23.9193 12.6072 24.1213 12.5536 24.2854 12.5284C24.4495 12.5032 24.5315 12.4887 24.5315 12.4849V12.4849Z" fill="var(--fill-0, #1ECAD3)"/>
</g>
</svg>
