<svg preserveAspectRatio="none" width="100%" height="100%" overflow="visible" style="display: block;" viewBox="0 0 42 42" fill="none" xmlns="http://www.w3.org/2000/svg">
<g id="Group 73">
<g id="Social Media Icon">
</g>
<path id="YouTube" d="M21.5117 29.1432L16.7725 29.0547C15.2381 29.0238 13.6998 29.0854 12.1954 28.7656C9.90693 28.2879 9.7448 25.9453 9.57515 23.9804C9.3414 21.2179 9.43189 18.4053 9.87302 15.6659C10.1221 14.1288 11.1021 13.2116 12.6177 13.1117C17.7339 12.7495 22.8842 12.7924 27.9891 12.9614C28.5282 12.9769 29.0711 13.0616 29.6027 13.158C32.2269 13.6281 32.2909 16.2827 32.461 18.5174C32.6306 20.7751 32.559 23.0445 32.2348 25.2869C31.9746 27.1435 31.4769 28.7005 29.3765 28.8508C26.7447 29.0473 24.1734 29.2056 21.5343 29.1552C21.5344 29.1432 21.5193 29.1432 21.5117 29.1432ZM18.7255 24.4428C20.7088 23.2791 22.6541 22.1349 24.626 20.979C22.6391 19.8154 20.6974 18.6711 18.7255 17.5153V24.4428Z" fill="var(--fill-0, #1ECAD3)"/>
</g>
</svg>
