<svg preserveAspectRatio="none" width="100%" height="100%" overflow="visible" style="display: block;" viewBox="0 0 42 42" fill="none" xmlns="http://www.w3.org/2000/svg">
<g id="Group 73">
<g id="Social Media Icon">
</g>
<path id="LinkedIn" d="M10.5 13.3232C10.5 12.6498 10.7365 12.0943 11.2095 11.6566C11.6824 11.2188 12.2973 11 13.0541 11C13.7973 11 14.3987 11.2155 14.8581 11.6465C15.3311 12.0909 15.5676 12.67 15.5676 13.3838C15.5676 14.0303 15.3379 14.569 14.8784 15C14.4054 15.4444 13.7838 15.6667 13.0135 15.6667H12.9933C12.25 15.6667 11.6487 15.4444 11.1892 15C10.7297 14.5556 10.5 13.9966 10.5 13.3232ZM10.7635 31V17.505H15.2635V31H10.7635ZM17.7568 31H22.2568V23.4646C22.2568 22.9932 22.3108 22.6296 22.4189 22.3737C22.6081 21.9158 22.8953 21.5286 23.2804 21.2121C23.6656 20.8956 24.1487 20.7374 24.7298 20.7374C26.2433 20.7374 27 21.7542 27 23.7879V31H31.5V23.2626C31.5 21.2694 31.0271 19.7576 30.0811 18.7273C29.1352 17.697 27.8852 17.1818 26.3311 17.1818C24.5879 17.1818 23.2298 17.9293 22.2568 19.4242V19.4646H22.2365L22.2568 19.4242V17.505H17.7568C17.7838 17.936 17.7973 19.2761 17.7973 21.5252C17.7973 23.7744 17.7838 26.9326 17.7568 31Z" fill="var(--fill-0, #1ECAD3)"/>
</g>
</svg>
