<svg preserveAspectRatio="none" width="100%" height="100%" overflow="visible" style="display: block;" viewBox="0 0 42 42" fill="none" xmlns="http://www.w3.org/2000/svg">
<g id="Instagram Icon">
<g id="Social Media Icon">
</g>
<path id="Instagram" d="M21 10.5C25.194 10.5 27.2913 10.4998 28.8018 11.499C29.4763 11.9453 30.0547 12.5237 30.501 13.1982C31.5002 14.7087 31.5 16.806 31.5 21C31.5 25.194 31.5002 27.2913 30.501 28.8018C30.0547 29.4763 29.4763 30.0547 28.8018 30.501C27.2913 31.5002 25.194 31.5 21 31.5C16.806 31.5 14.7087 31.5002 13.1982 30.501C12.5237 30.0547 11.9453 29.4763 11.499 28.8018C10.4998 27.2913 10.5 25.194 10.5 21C10.5 16.806 10.4998 14.7087 11.499 13.1982C11.9453 12.5237 12.5237 11.9453 13.1982 11.499C14.7087 10.4998 16.806 10.5 21 10.5ZM21 15.5645C17.9979 15.5645 15.5636 17.9979 15.5635 21C15.5635 24.0022 17.9978 26.4365 21 26.4365C24.0021 26.4364 26.4355 24.0021 26.4355 21C26.4354 17.998 24.002 15.5646 21 15.5645ZM21 17.4033C22.9863 17.4034 24.5965 19.0137 24.5967 21C24.5967 22.9864 22.9864 24.5966 21 24.5967C19.0135 24.5967 17.4033 22.9865 17.4033 21C17.4035 19.0136 19.0136 17.4033 21 17.4033ZM26.6504 14.0137C25.9451 14.0137 25.3731 14.5857 25.373 15.291C25.373 15.9964 25.945 16.5683 26.6504 16.5684C27.3558 16.5684 27.9277 15.9964 27.9277 15.291C27.9276 14.5857 27.3558 14.0137 26.6504 14.0137Z" fill="var(--fill-0, #1ECAD3)"/>
</g>
</svg>
