<svg xmlns="http://www.w3.org/2000/svg" version="1.1" xmlns:xlink="http://www.w3.org/1999/xlink" xmlns:svgjs="http://svgjs.dev/svgjs" viewBox="0 0 800 800"><defs><linearGradient gradientTransform="rotate(270)" x1="50%" y1="0%" x2="50%" y2="100%" id="sssquiggly-grad"><stop stop-color="hsl(180, 69%, 40%)" stop-opacity="1" offset="0%"></stop><stop stop-color="hsl(180, 69%, 60%)" stop-opacity="1" offset="100%"></stop></linearGradient></defs><g stroke-width="2" stroke="url(#sssquiggly-grad)" fill="none" stroke-linecap="round" transform="matrix(1,0,0,1,0,57.52985763549805)"><path d="M10,10C21.805555555555557,13.333333333333332,40.97222222222223,33.291666666666664,66.66666666666667,26C92.36111111111111,18.708333333333336,105.55555555555557,-27.708333333333332,133.33333333333334,-25C161.11111111111111,-22.291666666666668,172.22222222222223,34.416666666666664,200,39C227.77777777777777,43.583333333333336,238.8888888888889,-2.166666666666667,266.6666666666667,-3C294.44444444444446,-3.833333333333333,305.5555555555556,37.083333333333336,333.33333333333337,35C361.11111111111114,32.916666666666664,372.22222222222223,-15.083333333333334,400,-13C427.77777777777777,-10.916666666666666,438.8888888888889,44.791666666666664,466.6666666666667,45C494.44444444444446,45.208333333333336,505.5555555555556,-12,533.3333333333334,-12C561.1111111111111,-12,572.2222222222222,43.125,600,45C627.7777777777778,46.875,638.8888888888889,-0.5,666.6666666666667,-3C694.4444444444446,-5.5,707.6388888888889,30.291666666666668,733.3333333333334,33C759.0277777777778,35.708333333333336,778.1944444444445,14.791666666666668,790,10"></path><path d="M10,10C21.805555555555557,13.333333333333332,40.97222222222223,33.291666666666664,66.66666666666667,26C92.36111111111111,18.708333333333336,105.55555555555557,-27.708333333333332,133.33333333333334,-25C161.11111111111111,-22.291666666666668,172.22222222222223,34.416666666666664,200,39C227.77777777777777,43.583333333333336,238.8888888888889,-2.166666666666667,266.6666666666667,-3C294.44444444444446,-3.833333333333333,305.5555555555556,37.083333333333336,333.33333333333337,35C361.11111111111114,32.916666666666664,372.22222222222223,-15.083333333333334,400,-13C427.77777777777777,-10.916666666666666,438.8888888888889,44.791666666666664,466.6666666666667,45C494.44444444444446,45.208333333333336,505.5555555555556,-12,533.3333333333334,-12C561.1111111111111,-12,572.2222222222222,43.125,600,45C627.7777777777778,46.875,638.8888888888889,-0.5,666.6666666666667,-3C694.4444444444446,-5.5,707.6388888888889,30.291666666666668,733.3333333333334,33C759.0277777777778,35.708333333333336,778.1944444444445,14.791666666666668,790,10" transform="matrix(1,0,0,1,0,665)"></path><path d="M10,10C21.805555555555557,13.333333333333332,40.97222222222223,33.291666666666664,66.66666666666667,26C92.36111111111111,18.708333333333336,105.55555555555557,-27.708333333333332,133.33333333333334,-25C161.11111111111111,-22.291666666666668,172.22222222222223,34.416666666666664,200,39C227.77777777777777,43.583333333333336,238.8888888888889,-2.166666666666667,266.6666666666667,-3C294.44444444444446,-3.833333333333333,305.5555555555556,37.083333333333336,333.33333333333337,35C361.11111111111114,32.916666666666664,372.22222222222223,-15.083333333333334,400,-13C427.77777777777777,-10.916666666666666,438.8888888888889,44.791666666666664,466.6666666666667,45C494.44444444444446,45.208333333333336,505.5555555555556,-12,533.3333333333334,-12C561.1111111111111,-12,572.2222222222222,43.125,600,45C627.7777777777778,46.875,638.8888888888889,-0.5,666.6666666666667,-3C694.4444444444446,-5.5,707.6388888888889,30.291666666666668,733.3333333333334,33C759.0277777777778,35.708333333333336,778.1944444444445,14.791666666666668,790,10" transform="matrix(1,0,0,1,0,630)"></path><path d="M10,10C21.805555555555557,13.333333333333332,40.97222222222223,33.291666666666664,66.66666666666667,26C92.36111111111111,18.708333333333336,105.55555555555557,-27.708333333333332,133.33333333333334,-25C161.11111111111111,-22.291666666666668,172.22222222222223,34.416666666666664,200,39C227.77777777777777,43.583333333333336,238.8888888888889,-2.166666666666667,266.6666666666667,-3C294.44444444444446,-3.833333333333333,305.5555555555556,37.083333333333336,333.33333333333337,35C361.11111111111114,32.916666666666664,372.22222222222223,-15.083333333333334,400,-13C427.77777777777777,-10.916666666666666,438.8888888888889,44.791666666666664,466.6666666666667,45C494.44444444444446,45.208333333333336,505.5555555555556,-12,533.3333333333334,-12C561.1111111111111,-12,572.2222222222222,43.125,600,45C627.7777777777778,46.875,638.8888888888889,-0.5,666.6666666666667,-3C694.4444444444446,-5.5,707.6388888888889,30.291666666666668,733.3333333333334,33C759.0277777777778,35.708333333333336,778.1944444444445,14.791666666666668,790,10" transform="matrix(1,0,0,1,0,595)"></path><path d="M10,10C21.805555555555557,13.333333333333332,40.97222222222223,33.291666666666664,66.66666666666667,26C92.36111111111111,18.708333333333336,105.55555555555557,-27.708333333333332,133.33333333333334,-25C161.11111111111111,-22.291666666666668,172.22222222222223,34.416666666666664,200,39C227.77777777777777,43.583333333333336,238.8888888888889,-2.166666666666667,266.6666666666667,-3C294.44444444444446,-3.833333333333333,305.5555555555556,37.083333333333336,333.33333333333337,35C361.11111111111114,32.916666666666664,372.22222222222223,-15.083333333333334,400,-13C427.77777777777777,-10.916666666666666,438.8888888888889,44.791666666666664,466.6666666666667,45C494.44444444444446,45.208333333333336,505.5555555555556,-12,533.3333333333334,-12C561.1111111111111,-12,572.2222222222222,43.125,600,45C627.7777777777778,46.875,638.8888888888889,-0.5,666.6666666666667,-3C694.4444444444446,-5.5,707.6388888888889,30.291666666666668,733.3333333333334,33C759.0277777777778,35.708333333333336,778.1944444444445,14.791666666666668,790,10" transform="matrix(1,0,0,1,0,560)"></path><path d="M10,10C21.805555555555557,13.333333333333332,40.97222222222223,33.291666666666664,66.66666666666667,26C92.36111111111111,18.708333333333336,105.55555555555557,-27.708333333333332,133.33333333333334,-25C161.11111111111111,-22.291666666666668,172.22222222222223,34.416666666666664,200,39C227.77777777777777,43.583333333333336,238.8888888888889,-2.166666666666667,266.6666666666667,-3C294.44444444444446,-3.833333333333333,305.5555555555556,37.083333333333336,333.33333333333337,35C361.11111111111114,32.916666666666664,372.22222222222223,-15.083333333333334,400,-13C427.77777777777777,-10.916666666666666,438.8888888888889,44.791666666666664,466.6666666666667,45C494.44444444444446,45.208333333333336,505.5555555555556,-12,533.3333333333334,-12C561.1111111111111,-12,572.2222222222222,43.125,600,45C627.7777777777778,46.875,638.8888888888889,-0.5,666.6666666666667,-3C694.4444444444446,-5.5,707.6388888888889,30.291666666666668,733.3333333333334,33C759.0277777777778,35.708333333333336,778.1944444444445,14.791666666666668,790,10" transform="matrix(1,0,0,1,0,525)"></path><path d="M10,10C21.805555555555557,13.333333333333332,40.97222222222223,33.291666666666664,66.66666666666667,26C92.36111111111111,18.708333333333336,105.55555555555557,-27.708333333333332,133.33333333333334,-25C161.11111111111111,-22.291666666666668,172.22222222222223,34.416666666666664,200,39C227.77777777777777,43.583333333333336,238.8888888888889,-2.166666666666667,266.6666666666667,-3C294.44444444444446,-3.833333333333333,305.5555555555556,37.083333333333336,333.33333333333337,35C361.11111111111114,32.916666666666664,372.22222222222223,-15.083333333333334,400,-13C427.77777777777777,-10.916666666666666,438.8888888888889,44.791666666666664,466.6666666666667,45C494.44444444444446,45.208333333333336,505.5555555555556,-12,533.3333333333334,-12C561.1111111111111,-12,572.2222222222222,43.125,600,45C627.7777777777778,46.875,638.8888888888889,-0.5,666.6666666666667,-3C694.4444444444446,-5.5,707.6388888888889,30.291666666666668,733.3333333333334,33C759.0277777777778,35.708333333333336,778.1944444444445,14.791666666666668,790,10" transform="matrix(1,0,0,1,0,490)"></path><path d="M10,10C21.805555555555557,13.333333333333332,40.97222222222223,33.291666666666664,66.66666666666667,26C92.36111111111111,18.708333333333336,105.55555555555557,-27.708333333333332,133.33333333333334,-25C161.11111111111111,-22.291666666666668,172.22222222222223,34.416666666666664,200,39C227.77777777777777,43.583333333333336,238.8888888888889,-2.166666666666667,266.6666666666667,-3C294.44444444444446,-3.833333333333333,305.5555555555556,37.083333333333336,333.33333333333337,35C361.11111111111114,32.916666666666664,372.22222222222223,-15.083333333333334,400,-13C427.77777777777777,-10.916666666666666,438.8888888888889,44.791666666666664,466.6666666666667,45C494.44444444444446,45.208333333333336,505.5555555555556,-12,533.3333333333334,-12C561.1111111111111,-12,572.2222222222222,43.125,600,45C627.7777777777778,46.875,638.8888888888889,-0.5,666.6666666666667,-3C694.4444444444446,-5.5,707.6388888888889,30.291666666666668,733.3333333333334,33C759.0277777777778,35.708333333333336,778.1944444444445,14.791666666666668,790,10" transform="matrix(1,0,0,1,0,455)"></path><path d="M10,10C21.805555555555557,13.333333333333332,40.97222222222223,33.291666666666664,66.66666666666667,26C92.36111111111111,18.708333333333336,105.55555555555557,-27.708333333333332,133.33333333333334,-25C161.11111111111111,-22.291666666666668,172.22222222222223,34.416666666666664,200,39C227.77777777777777,43.583333333333336,238.8888888888889,-2.166666666666667,266.6666666666667,-3C294.44444444444446,-3.833333333333333,305.5555555555556,37.083333333333336,333.33333333333337,35C361.11111111111114,32.916666666666664,372.22222222222223,-15.083333333333334,400,-13C427.77777777777777,-10.916666666666666,438.8888888888889,44.791666666666664,466.6666666666667,45C494.44444444444446,45.208333333333336,505.5555555555556,-12,533.3333333333334,-12C561.1111111111111,-12,572.2222222222222,43.125,600,45C627.7777777777778,46.875,638.8888888888889,-0.5,666.6666666666667,-3C694.4444444444446,-5.5,707.6388888888889,30.291666666666668,733.3333333333334,33C759.0277777777778,35.708333333333336,778.1944444444445,14.791666666666668,790,10" transform="matrix(1,0,0,1,0,420)"></path><path d="M10,10C21.805555555555557,13.333333333333332,40.97222222222223,33.291666666666664,66.66666666666667,26C92.36111111111111,18.708333333333336,105.55555555555557,-27.708333333333332,133.33333333333334,-25C161.11111111111111,-22.291666666666668,172.22222222222223,34.416666666666664,200,39C227.77777777777777,43.583333333333336,238.8888888888889,-2.166666666666667,266.6666666666667,-3C294.44444444444446,-3.833333333333333,305.5555555555556,37.083333333333336,333.33333333333337,35C361.11111111111114,32.916666666666664,372.22222222222223,-15.083333333333334,400,-13C427.77777777777777,-10.916666666666666,438.8888888888889,44.791666666666664,466.6666666666667,45C494.44444444444446,45.208333333333336,505.5555555555556,-12,533.3333333333334,-12C561.1111111111111,-12,572.2222222222222,43.125,600,45C627.7777777777778,46.875,638.8888888888889,-0.5,666.6666666666667,-3C694.4444444444446,-5.5,707.6388888888889,30.291666666666668,733.3333333333334,33C759.0277777777778,35.708333333333336,778.1944444444445,14.791666666666668,790,10" transform="matrix(1,0,0,1,0,385)"></path><path d="M10,10C21.805555555555557,13.333333333333332,40.97222222222223,33.291666666666664,66.66666666666667,26C92.36111111111111,18.708333333333336,105.55555555555557,-27.708333333333332,133.33333333333334,-25C161.11111111111111,-22.291666666666668,172.22222222222223,34.416666666666664,200,39C227.77777777777777,43.583333333333336,238.8888888888889,-2.166666666666667,266.6666666666667,-3C294.44444444444446,-3.833333333333333,305.5555555555556,37.083333333333336,333.33333333333337,35C361.11111111111114,32.916666666666664,372.22222222222223,-15.083333333333334,400,-13C427.77777777777777,-10.916666666666666,438.8888888888889,44.791666666666664,466.6666666666667,45C494.44444444444446,45.208333333333336,505.5555555555556,-12,533.3333333333334,-12C561.1111111111111,-12,572.2222222222222,43.125,600,45C627.7777777777778,46.875,638.8888888888889,-0.5,666.6666666666667,-3C694.4444444444446,-5.5,707.6388888888889,30.291666666666668,733.3333333333334,33C759.0277777777778,35.708333333333336,778.1944444444445,14.791666666666668,790,10" transform="matrix(1,0,0,1,0,350)"></path><path d="M10,10C21.805555555555557,13.333333333333332,40.97222222222223,33.291666666666664,66.66666666666667,26C92.36111111111111,18.708333333333336,105.55555555555557,-27.708333333333332,133.33333333333334,-25C161.11111111111111,-22.291666666666668,172.22222222222223,34.416666666666664,200,39C227.77777777777777,43.583333333333336,238.8888888888889,-2.166666666666667,266.6666666666667,-3C294.44444444444446,-3.833333333333333,305.5555555555556,37.083333333333336,333.33333333333337,35C361.11111111111114,32.916666666666664,372.22222222222223,-15.083333333333334,400,-13C427.77777777777777,-10.916666666666666,438.8888888888889,44.791666666666664,466.6666666666667,45C494.44444444444446,45.208333333333336,505.5555555555556,-12,533.3333333333334,-12C561.1111111111111,-12,572.2222222222222,43.125,600,45C627.7777777777778,46.875,638.8888888888889,-0.5,666.6666666666667,-3C694.4444444444446,-5.5,707.6388888888889,30.291666666666668,733.3333333333334,33C759.0277777777778,35.708333333333336,778.1944444444445,14.791666666666668,790,10" transform="matrix(1,0,0,1,0,315)"></path><path d="M10,10C21.805555555555557,13.333333333333332,40.97222222222223,33.291666666666664,66.66666666666667,26C92.36111111111111,18.708333333333336,105.55555555555557,-27.708333333333332,133.33333333333334,-25C161.11111111111111,-22.291666666666668,172.22222222222223,34.416666666666664,200,39C227.77777777777777,43.583333333333336,238.8888888888889,-2.166666666666667,266.6666666666667,-3C294.44444444444446,-3.833333333333333,305.5555555555556,37.083333333333336,333.33333333333337,35C361.11111111111114,32.916666666666664,372.22222222222223,-15.083333333333334,400,-13C427.77777777777777,-10.916666666666666,438.8888888888889,44.791666666666664,466.6666666666667,45C494.44444444444446,45.208333333333336,505.5555555555556,-12,533.3333333333334,-12C561.1111111111111,-12,572.2222222222222,43.125,600,45C627.7777777777778,46.875,638.8888888888889,-0.5,666.6666666666667,-3C694.4444444444446,-5.5,707.6388888888889,30.291666666666668,733.3333333333334,33C759.0277777777778,35.708333333333336,778.1944444444445,14.791666666666668,790,10" transform="matrix(1,0,0,1,0,280)"></path><path d="M10,10C21.805555555555557,13.333333333333332,40.97222222222223,33.291666666666664,66.66666666666667,26C92.36111111111111,18.708333333333336,105.55555555555557,-27.708333333333332,133.33333333333334,-25C161.11111111111111,-22.291666666666668,172.22222222222223,34.416666666666664,200,39C227.77777777777777,43.583333333333336,238.8888888888889,-2.166666666666667,266.6666666666667,-3C294.44444444444446,-3.833333333333333,305.5555555555556,37.083333333333336,333.33333333333337,35C361.11111111111114,32.916666666666664,372.22222222222223,-15.083333333333334,400,-13C427.77777777777777,-10.916666666666666,438.8888888888889,44.791666666666664,466.6666666666667,45C494.44444444444446,45.208333333333336,505.5555555555556,-12,533.3333333333334,-12C561.1111111111111,-12,572.2222222222222,43.125,600,45C627.7777777777778,46.875,638.8888888888889,-0.5,666.6666666666667,-3C694.4444444444446,-5.5,707.6388888888889,30.291666666666668,733.3333333333334,33C759.0277777777778,35.708333333333336,778.1944444444445,14.791666666666668,790,10" transform="matrix(1,0,0,1,0,245)"></path><path d="M10,10C21.805555555555557,13.333333333333332,40.97222222222223,33.291666666666664,66.66666666666667,26C92.36111111111111,18.708333333333336,105.55555555555557,-27.708333333333332,133.33333333333334,-25C161.11111111111111,-22.291666666666668,172.22222222222223,34.416666666666664,200,39C227.77777777777777,43.583333333333336,238.8888888888889,-2.166666666666667,266.6666666666667,-3C294.44444444444446,-3.833333333333333,305.5555555555556,37.083333333333336,333.33333333333337,35C361.11111111111114,32.916666666666664,372.22222222222223,-15.083333333333334,400,-13C427.77777777777777,-10.916666666666666,438.8888888888889,44.791666666666664,466.6666666666667,45C494.44444444444446,45.208333333333336,505.5555555555556,-12,533.3333333333334,-12C561.1111111111111,-12,572.2222222222222,43.125,600,45C627.7777777777778,46.875,638.8888888888889,-0.5,666.6666666666667,-3C694.4444444444446,-5.5,707.6388888888889,30.291666666666668,733.3333333333334,33C759.0277777777778,35.708333333333336,778.1944444444445,14.791666666666668,790,10" transform="matrix(1,0,0,1,0,210)"></path><path d="M10,10C21.805555555555557,13.333333333333332,40.97222222222223,33.291666666666664,66.66666666666667,26C92.36111111111111,18.708333333333336,105.55555555555557,-27.708333333333332,133.33333333333334,-25C161.11111111111111,-22.291666666666668,172.22222222222223,34.416666666666664,200,39C227.77777777777777,43.583333333333336,238.8888888888889,-2.166666666666667,266.6666666666667,-3C294.44444444444446,-3.833333333333333,305.5555555555556,37.083333333333336,333.33333333333337,35C361.11111111111114,32.916666666666664,372.22222222222223,-15.083333333333334,400,-13C427.77777777777777,-10.916666666666666,438.8888888888889,44.791666666666664,466.6666666666667,45C494.44444444444446,45.208333333333336,505.5555555555556,-12,533.3333333333334,-12C561.1111111111111,-12,572.2222222222222,43.125,600,45C627.7777777777778,46.875,638.8888888888889,-0.5,666.6666666666667,-3C694.4444444444446,-5.5,707.6388888888889,30.291666666666668,733.3333333333334,33C759.0277777777778,35.708333333333336,778.1944444444445,14.791666666666668,790,10" transform="matrix(1,0,0,1,0,175)"></path><path d="M10,10C21.805555555555557,13.333333333333332,40.97222222222223,33.291666666666664,66.66666666666667,26C92.36111111111111,18.708333333333336,105.55555555555557,-27.708333333333332,133.33333333333334,-25C161.11111111111111,-22.291666666666668,172.22222222222223,34.416666666666664,200,39C227.77777777777777,43.583333333333336,238.8888888888889,-2.166666666666667,266.6666666666667,-3C294.44444444444446,-3.833333333333333,305.5555555555556,37.083333333333336,333.33333333333337,35C361.11111111111114,32.916666666666664,372.22222222222223,-15.083333333333334,400,-13C427.77777777777777,-10.916666666666666,438.8888888888889,44.791666666666664,466.6666666666667,45C494.44444444444446,45.208333333333336,505.5555555555556,-12,533.3333333333334,-12C561.1111111111111,-12,572.2222222222222,43.125,600,45C627.7777777777778,46.875,638.8888888888889,-0.5,666.6666666666667,-3C694.4444444444446,-5.5,707.6388888888889,30.291666666666668,733.3333333333334,33C759.0277777777778,35.708333333333336,778.1944444444445,14.791666666666668,790,10" transform="matrix(1,0,0,1,0,140)"></path><path d="M10,10C21.805555555555557,13.333333333333332,40.97222222222223,33.291666666666664,66.66666666666667,26C92.36111111111111,18.708333333333336,105.55555555555557,-27.708333333333332,133.33333333333334,-25C161.11111111111111,-22.291666666666668,172.22222222222223,34.416666666666664,200,39C227.77777777777777,43.583333333333336,238.8888888888889,-2.166666666666667,266.6666666666667,-3C294.44444444444446,-3.833333333333333,305.5555555555556,37.083333333333336,333.33333333333337,35C361.11111111111114,32.916666666666664,372.22222222222223,-15.083333333333334,400,-13C427.77777777777777,-10.916666666666666,438.8888888888889,44.791666666666664,466.6666666666667,45C494.44444444444446,45.208333333333336,505.5555555555556,-12,533.3333333333334,-12C561.1111111111111,-12,572.2222222222222,43.125,600,45C627.7777777777778,46.875,638.8888888888889,-0.5,666.6666666666667,-3C694.4444444444446,-5.5,707.6388888888889,30.291666666666668,733.3333333333334,33C759.0277777777778,35.708333333333336,778.1944444444445,14.791666666666668,790,10" transform="matrix(1,0,0,1,0,105)"></path><path d="M10,10C21.805555555555557,13.333333333333332,40.97222222222223,33.291666666666664,66.66666666666667,26C92.36111111111111,18.708333333333336,105.55555555555557,-27.708333333333332,133.33333333333334,-25C161.11111111111111,-22.291666666666668,172.22222222222223,34.416666666666664,200,39C227.77777777777777,43.583333333333336,238.8888888888889,-2.166666666666667,266.6666666666667,-3C294.44444444444446,-3.833333333333333,305.5555555555556,37.083333333333336,333.33333333333337,35C361.11111111111114,32.916666666666664,372.22222222222223,-15.083333333333334,400,-13C427.77777777777777,-10.916666666666666,438.8888888888889,44.791666666666664,466.6666666666667,45C494.44444444444446,45.208333333333336,505.5555555555556,-12,533.3333333333334,-12C561.1111111111111,-12,572.2222222222222,43.125,600,45C627.7777777777778,46.875,638.8888888888889,-0.5,666.6666666666667,-3C694.4444444444446,-5.5,707.6388888888889,30.291666666666668,733.3333333333334,33C759.0277777777778,35.708333333333336,778.1944444444445,14.791666666666668,790,10" transform="matrix(1,0,0,1,0,70)"></path><path d="M10,10C21.805555555555557,13.333333333333332,40.97222222222223,33.291666666666664,66.66666666666667,26C92.36111111111111,18.708333333333336,105.55555555555557,-27.708333333333332,133.33333333333334,-25C161.11111111111111,-22.291666666666668,172.22222222222223,34.416666666666664,200,39C227.77777777777777,43.583333333333336,238.8888888888889,-2.166666666666667,266.6666666666667,-3C294.44444444444446,-3.833333333333333,305.5555555555556,37.083333333333336,333.33333333333337,35C361.11111111111114,32.916666666666664,372.22222222222223,-15.083333333333334,400,-13C427.77777777777777,-10.916666666666666,438.8888888888889,44.791666666666664,466.6666666666667,45C494.44444444444446,45.208333333333336,505.5555555555556,-12,533.3333333333334,-12C561.1111111111111,-12,572.2222222222222,43.125,600,45C627.7777777777778,46.875,638.8888888888889,-0.5,666.6666666666667,-3C694.4444444444446,-5.5,707.6388888888889,30.291666666666668,733.3333333333334,33C759.0277777777778,35.708333333333336,778.1944444444445,14.791666666666668,790,10" transform="matrix(1,0,0,1,0,35)"></path></g></svg>