<svg preserveAspectRatio="none" width="100%" height="100%" overflow="visible" style="display: block;" viewBox="0 0 16 16" fill="none" xmlns="http://www.w3.org/2000/svg">
<g id="tick-circle">
<path id="Vector" d="M8 1.33333C4.32667 1.33333 1.33333 4.32667 1.33333 8C1.33333 11.6733 4.32667 14.6667 8 14.6667C11.6733 14.6667 14.6667 11.6733 14.6667 8C14.6667 4.32667 11.6733 1.33333 8 1.33333ZM11.1867 6.46667L7.40667 10.2467C7.31333 10.34 7.18667 10.3933 7.05333 10.3933C6.92 10.3933 6.79333 10.34 6.7 10.2467L4.81333 8.36C4.62 8.16667 4.62 7.84667 4.81333 7.65333C5.00667 7.46 5.32667 7.46 5.52 7.65333L7.05333 9.18667L10.48 5.76C10.6733 5.56667 10.9933 5.56667 11.1867 5.76C11.38 5.95333 11.38 6.26667 11.1867 6.46667Z" fill="var(--fill-0, #138086)"/>
<g id="Vector_2" opacity="0">
</g>
</g>
</svg>
