<svg width="40" height="31" viewBox="0 0 40 31" fill="none" xmlns="http://www.w3.org/2000/svg">
<g clip-path="url(#clip0_1369_280)">
<g filter="url(#filter0_d_1369_280)">
<path d="M16.1853 5.07011L11.8891 9.39352C11.4917 9.79152 10.8492 9.79152 10.4535 9.39352L6.15558 5.07187C5.75992 4.67387 5.11916 4.67387 4.72351 5.07187L0.425537 9.39352L4.72701 5.0613L9.02673 0.737892C9.42239 0.339892 10.0631 0.339892 10.4588 0.737892L14.7585 5.0613C15.1542 5.45754 15.7949 5.45754 16.1906 5.0613L16.1853 5.07011Z" fill="url(#paint0_linear_1369_280)"/>
<path d="M27.656 5.05779H27.6543L23.3563 9.38296C22.9606 9.78272 22.3199 9.78272 21.9242 9.38296H21.9225L17.6262 5.06131C17.2288 4.66331 16.5863 4.66331 16.1907 5.06131V5.06659L16.1924 5.05779L20.4904 0.734377V0.727333C20.8878 0.329333 21.5321 0.329333 21.9277 0.727333L26.2239 5.05251C26.6196 5.45051 27.2604 5.45755 27.656 5.05779Z" fill="url(#paint1_linear_1369_280)"/>
<path d="M27.6523 5.0613L31.9538 0.729081C32.3512 0.32932 32.9937 0.32932 33.3876 0.729081L29.0862 5.06306C28.6905 4.66506 28.0498 4.66506 27.6523 5.06306V5.0613Z" fill="url(#paint2_linear_1369_280)"/>
<path d="M23.3826 10.2318L27.6806 5.90836C28.0762 5.51036 28.7205 5.51036 29.1127 5.90836L33.4141 10.2318C33.8098 10.6298 34.4505 10.6298 34.8462 10.2318L39.1459 5.90836L34.8427 10.2423L30.5447 14.564C30.1491 14.962 29.5083 14.962 29.1127 14.564L24.8129 10.2423C24.4173 9.84258 23.7765 9.84258 23.3809 10.2423V10.2318H23.3826Z" fill="url(#paint3_linear_1369_280)"/>
<path d="M11.9155 10.2459L16.2152 5.91892C16.6109 5.52092 17.2517 5.52092 17.6473 5.91892L21.9453 10.2441C22.3427 10.6421 22.9835 10.6421 23.3791 10.2441V10.2371V10.2459L19.0794 14.5693V14.5745C18.682 14.9726 18.0395 14.9726 17.6438 14.5745L13.3459 10.2511C12.9502 9.85314 12.3112 9.84609 11.9155 10.2441V10.2459Z" fill="url(#paint4_linear_1369_280)"/>
<path d="M11.9172 10.2441L7.61746 14.5728C7.22005 14.9726 6.57754 14.9726 6.18188 14.5746L10.4851 10.2424C10.8808 10.6404 11.5215 10.6404 11.9172 10.2424V10.2441Z" fill="#C41039"/>
</g>
<path d="M10.357 23.1105L9.67952 22.9608L8.80767 20.6291L7.82377 23.1105L7.14625 22.9608L5.66341 18.935L5.17847 18.0051H6.37069L7.46663 21.1469L7.57167 21.7386L7.72749 21.1469L8.384 19.4827L7.83953 18.0051H8.90571L10.0016 21.1469L10.1067 21.7386L10.2625 21.1469L11.418 18.0051H12.3493L10.3588 23.1122L10.357 23.1105Z" fill="#002E6E"/>
<path d="M15.5672 21.0782L15.3886 21.2578H13.3246C13.3613 21.8654 13.6677 22.3444 14.2559 22.3444C14.9037 22.3444 15.5077 21.8126 15.5077 21.8126L15.6425 22.5769C15.6425 22.5769 15.0455 23.1087 14.0774 23.1087C12.9674 23.1087 12.3774 22.1789 12.3774 21.212C12.3774 20.1167 12.9062 19.1129 14.1509 19.1129C15.3956 19.1129 15.5515 20.5147 15.5672 21.0782ZM13.3613 20.5974H14.6061C14.5833 20.2382 14.4573 19.7504 14.0616 19.7504C13.666 19.7504 13.4436 20.1255 13.3613 20.5974Z" fill="#002E6E"/>
<path d="M16.1711 21.8795C16.1711 21.8795 16.7751 22.4042 17.3563 22.4042C17.6242 22.4042 17.9008 22.2845 17.9008 22.0291C17.9008 21.4445 16.0888 21.4286 16.0888 20.3262C16.0888 19.4034 16.8118 19.1181 17.5716 19.1181C18.2281 19.1181 18.6378 19.3664 18.6378 19.3664L18.4662 20.1166C18.4662 20.1166 18.0933 19.7785 17.4158 19.7785C17.162 19.7785 16.9396 19.9282 16.9396 20.1307C16.9396 20.7383 18.7586 20.6714 18.7586 21.9305C18.7586 22.6948 18.2001 23.1069 17.3493 23.1069C16.4985 23.1069 16.0818 22.6649 16.0818 22.6649L16.1711 21.8777V21.8795Z" fill="#002E6E"/>
<path d="M20.5758 19.2255H21.6858L21.4477 19.9229H20.5688V21.9182C20.5688 22.1876 20.7036 22.2634 20.8822 22.2634C21.1588 22.2634 21.5685 22.0608 21.7401 21.9111L21.8363 22.7283C21.8363 22.7283 21.4197 23.1104 20.6056 23.1104C19.9718 23.1104 19.6515 22.7723 19.6515 21.8953V19.9229H19.1963V19.2255H19.6515V18.5581L20.6511 18.4454L20.5758 19.2255Z" fill="#002E6E"/>
<path d="M27.0534 23.0119V20.8229C27.0534 20.1184 26.9781 19.893 26.5982 19.893C26.0467 19.893 25.6738 20.321 25.6738 20.321V22.3832L25.7561 23.0136H24.7495V20.8246C24.7495 20.1202 24.6742 19.8948 24.2943 19.8948C23.7271 19.8948 23.3629 20.3298 23.3629 20.3298V22.3691L23.4452 23.0136H22.4385V19.9916L22.3335 19.2344L23.3629 19.1217V19.5866C23.6903 19.2872 24.1385 19.1146 24.5481 19.1146C24.9578 19.1146 25.3675 19.3013 25.5618 19.6394C25.5775 19.6165 26.017 19.1146 26.8521 19.1146C27.4193 19.1146 27.9778 19.4228 27.9778 20.0744V22.3832L28.06 23.0136H27.0534V23.0119Z" fill="#002E6E"/>
<path d="M29.0056 19.6834C29.0056 19.6834 29.5571 19.1129 30.5637 19.1129C31.1817 19.1129 31.8382 19.3682 31.8382 20.1484V22.0908C31.8382 22.5399 32.2181 22.9907 32.2181 22.9907L31.2798 23.0964C31.2798 23.0964 31.0942 22.8868 31.0259 22.6315C30.7353 22.9238 30.3099 23.1105 29.9002 23.1105C29.2525 23.1105 28.8113 22.6315 28.8113 22.1278C28.8113 21.3406 29.5868 20.7189 30.9139 20.6732V20.5305C30.9139 20.0057 30.7195 19.7803 30.4062 19.7803C29.8179 19.7803 29.3855 20.3421 29.3855 20.3421L29.0056 19.6817V19.6834ZM30.9139 22.0979V21.3336C30.548 21.3635 29.7654 21.4463 29.7654 22.008C29.7654 22.2176 29.9072 22.4201 30.2048 22.4201C30.4359 22.4201 30.7493 22.2634 30.9139 22.0979Z" fill="#002E6E"/>
<path d="M35.3693 23.0118V20.8228C35.3693 20.1184 35.2941 19.893 34.9142 19.893C34.3469 19.893 33.9828 20.3209 33.9828 20.3209V22.3673L34.0651 23.0118H33.0584V19.9899L32.9534 19.2326L33.9828 19.1199V19.5778C34.3102 19.2784 34.7583 19.1129 35.168 19.1129C35.7352 19.1129 36.2937 19.421 36.2937 20.0726V22.3814L36.376 23.0118H35.3693Z" fill="#002E6E"/>
<path d="M7.33875 24.1688C8.23336 24.1688 9.09821 24.6637 9.09821 25.7291C9.09821 26.622 8.24912 27.4092 7.0849 27.4092H6.86957V28.5345L6.95185 29.179H5.90143V24.9419L5.79639 24.1688H7.33875ZM7.20395 26.659C7.67314 26.659 8.09155 26.261 8.09155 25.7291C8.09155 25.1585 7.67489 24.8961 7.20395 24.8961H6.86782V26.659H7.20395Z" fill="#002E6E"/>
<path d="M12.78 26.3807C12.78 26.3807 12.563 26.1782 12.2811 26.1782C11.8942 26.1782 11.432 26.6572 11.432 27.2437V28.5328L11.5143 29.1773H10.5076V26.1624L10.4026 25.4051L11.432 25.2924V25.9739C11.432 25.9739 11.7979 25.2766 12.4457 25.2766C12.6767 25.2766 12.8851 25.3664 13.0637 25.5548L12.78 26.379V26.3807Z" fill="#002E6E"/>
<path d="M15.1573 28.5328L15.2396 29.1773H14.233V26.1483L14.1279 25.391L15.1573 25.2783V28.5328ZM14.6794 23.7568C14.9473 23.7568 15.1783 23.9892 15.1783 24.2816C15.1783 24.5598 14.9473 24.7835 14.6794 24.7835C14.3958 24.7835 14.1577 24.5581 14.1577 24.2816C14.1577 23.9892 14.3958 23.7568 14.6794 23.7568Z" fill="#002E6E"/>
<path d="M19.2558 29.1773V26.9883C19.2558 26.2839 19.1805 26.0585 18.8006 26.0585C18.2334 26.0585 17.8693 26.4864 17.8693 26.4864V28.5328L17.9515 29.1773H16.9449V26.1553L16.8398 25.3981L17.8693 25.2854V25.7432C18.1966 25.4439 18.6448 25.2783 19.0545 25.2783C19.6217 25.2783 20.1802 25.5865 20.1802 26.2381V28.5469L20.2625 29.1773H19.2558Z" fill="#002E6E"/>
<path d="M22.9079 25.3911H24.0178L23.7797 26.0884H22.9009V28.0837C22.9009 28.3532 23.0357 28.4289 23.2142 28.4289C23.4909 28.4289 23.9005 28.2264 24.0721 28.0767L24.1684 28.8938C24.1684 28.8938 23.7517 29.276 22.9376 29.276C22.3039 29.276 21.9835 28.9378 21.9835 28.0608V26.0884H21.5283V25.3911H21.9835V24.7236L22.9832 24.6109L22.9079 25.3911Z" fill="#002E6E"/>
<path d="M26.2621 28.5328L26.3444 29.1773H25.3377V26.1483L25.2327 25.391L26.2621 25.2783V28.5328ZM25.7859 23.7568C26.0537 23.7568 26.2848 23.9892 26.2848 24.2816C26.2848 24.5598 26.0537 24.7835 25.7859 24.7835C25.5023 24.7835 25.2642 24.5581 25.2642 24.2816C25.2642 23.9892 25.5023 23.7568 25.7859 23.7568Z" fill="#002E6E"/>
<path d="M30.3623 29.1773V26.9883C30.3623 26.2839 30.287 26.0585 29.9071 26.0585C29.3398 26.0585 28.9757 26.4864 28.9757 26.4864V28.5328L29.058 29.1773H28.0513V26.1553L27.9463 25.3981L28.9757 25.2854V25.7432C29.3031 25.4439 29.7513 25.2783 30.1609 25.2783C30.7282 25.2783 31.2866 25.5865 31.2866 26.2381V28.5469L31.3689 29.1773H30.3623Z" fill="#002E6E"/>
<path d="M33.7972 28.1964C33.701 28.2933 33.6414 28.3989 33.6414 28.4887C33.6414 29.0505 36.1607 28.1594 36.1607 29.6951C36.1607 30.5791 35.1768 31 34.2454 31C32.8816 31 32.6138 30.197 32.6138 30.197L33.1495 29.7021C33.1495 29.7021 33.3876 30.3326 34.3277 30.3326C34.7601 30.3326 35.2888 30.2199 35.2888 29.8536C35.2888 29.1263 32.8659 30.0103 32.8659 28.7881C32.8659 28.4887 33.097 28.1964 33.3281 27.9639C33.0007 27.7473 32.7171 27.2895 32.7171 26.8175C32.7171 25.9405 33.3946 25.2801 34.3417 25.2801C34.6481 25.2801 35.0052 25.4298 35.0718 25.4897L35.2066 25.3928H36.2955L36.1397 25.9704H35.618C35.7965 26.1958 35.8718 26.4653 35.8718 26.7576C35.8718 27.6505 35.1715 28.2721 34.2612 28.2721C33.9548 28.2721 33.799 28.1964 33.799 28.1964H33.7972ZM34.3049 27.6188C34.6411 27.6188 34.9229 27.2807 34.9229 26.7788C34.9229 26.2769 34.6393 25.9317 34.3049 25.9317C33.9706 25.9317 33.6642 26.2698 33.6642 26.7788C33.6642 27.2877 33.9706 27.6188 34.3049 27.6188Z" fill="#002E6E"/>
</g>
<defs>
<filter id="filter0_d_1369_280" x="-0.714463" y="-0.711167" width="43.2805" height="19.0042" filterUnits="userSpaceOnUse" color-interpolation-filters="sRGB">
<feFlood flood-opacity="0" result="BackgroundImageFix"/>
<feColorMatrix in="SourceAlpha" type="matrix" values="0 0 0 0 0 0 0 0 0 0 0 0 0 0 0 0 0 0 127 0" result="hardAlpha"/>
<feOffset dx="1.14" dy="1.14"/>
<feGaussianBlur stdDeviation="1.14"/>
<feColorMatrix type="matrix" values="0 0 0 0 1 0 0 0 0 1 0 0 0 0 1 0 0 0 0.67 0"/>
<feBlend mode="normal" in2="BackgroundImageFix" result="effect1_dropShadow_1369_280"/>
<feBlend mode="normal" in="SourceGraphic" in2="effect1_dropShadow_1369_280" result="shape"/>
</filter>
<linearGradient id="paint0_linear_1369_280" x1="5.43954" y1="4.34279" x2="11.2087" y2="10.078" gradientUnits="userSpaceOnUse">
<stop offset="0.09" stop-color="#0087BF"/>
<stop offset="0.21" stop-color="white"/>
<stop offset="0.33" stop-color="#0087BF"/>
</linearGradient>
<linearGradient id="paint1_linear_1369_280" x1="19.0496" y1="2.17493" x2="24.8187" y2="7.91012" gradientUnits="userSpaceOnUse">
<stop offset="0.09" stop-color="#0087BF"/>
<stop offset="0.21" stop-color="white"/>
<stop offset="0.33" stop-color="#0087BF"/>
</linearGradient>
<linearGradient id="paint2_linear_1369_280" x1="30.1576" y1="2.53065" x2="30.8831" y2="3.25016" gradientUnits="userSpaceOnUse">
<stop offset="0.09" stop-color="#0087BF"/>
<stop offset="0.21" stop-color="white"/>
<stop offset="0.33" stop-color="#0087BF"/>
</linearGradient>
<linearGradient id="paint3_linear_1369_280" x1="28.3931" y1="5.18985" x2="34.1622" y2="10.9233" gradientUnits="userSpaceOnUse">
<stop offset="0.08" stop-color="#C41039"/>
<stop offset="0.19" stop-color="white"/>
<stop offset="0.29" stop-color="#C41039"/>
</linearGradient>
<linearGradient id="paint4_linear_1369_280" x1="14.5818" y1="7.15695" x2="20.756" y2="13.2948" gradientUnits="userSpaceOnUse">
<stop offset="0.08" stop-color="#C41039"/>
<stop offset="0.19" stop-color="white"/>
<stop offset="0.29" stop-color="#C41039"/>
</linearGradient>
<clipPath id="clip0_1369_280">
<rect width="40" height="31" fill="white"/>
</clipPath>
</defs>
</svg>
