<svg preserveAspectRatio="none" width="100%" height="100%" overflow="visible" style="display: block;" viewBox="0 0 31.1975 12.9949" fill="none" xmlns="http://www.w3.org/2000/svg">
<g id="Group">
<path id="Vector" d="M5.17857 5.10532L4.50105 4.95563L3.6292 2.62399L2.64531 5.10532L1.96779 4.95563L0.484944 0.929841L0 0H1.19223L2.28817 3.14174L2.39321 3.73346L2.54902 3.14174L3.20553 1.47753L2.66106 0H3.72724L4.82318 3.14174L4.92822 3.73346L5.08403 3.14174L6.2395 0H7.17087L5.18032 5.10709L5.17857 5.10532Z" fill="var(--fill-0, #002E6E)"/>
<path id="Vector_2" d="M10.3887 3.07306L10.2101 3.25268H8.14601C8.18277 3.86025 8.48915 4.33926 9.07738 4.33926C9.72514 4.33926 10.3291 3.80742 10.3291 3.80742L10.4639 4.57172C10.4639 4.57172 9.86695 5.10356 8.89881 5.10356C7.78887 5.10356 7.19888 4.17372 7.19888 3.2069C7.19888 2.11151 7.72759 1.10771 8.97234 1.10771C10.2171 1.10771 10.3729 2.50952 10.3887 3.07306ZM8.18277 2.59228H9.42752C9.40476 2.23303 9.27871 1.74521 8.88305 1.74521C8.48739 1.74521 8.26506 2.12032 8.18277 2.59228Z" fill="var(--fill-0, #002E6E)"/>
<path id="Vector_3" d="M10.9926 3.87434C10.9926 3.87434 11.5966 4.39914 12.1779 4.39914C12.4457 4.39914 12.7223 4.27938 12.7223 4.02403C12.7223 3.43936 10.9104 3.42351 10.9104 2.32108C10.9104 1.39828 11.6334 1.11299 12.3932 1.11299C13.0497 1.11299 13.4594 1.3613 13.4594 1.3613L13.2878 2.11151C13.2878 2.11151 12.9149 1.77339 12.2374 1.77339C11.9835 1.77339 11.7612 1.92308 11.7612 2.1256C11.7612 2.73317 13.5802 2.66625 13.5802 3.92541C13.5802 4.68971 13.0217 5.1018 12.1709 5.1018C11.32 5.1018 10.9034 4.65977 10.9034 4.65977L10.9926 3.87258V3.87434Z" fill="var(--fill-0, #002E6E)"/>
<path id="Vector_4" d="M15.3974 1.22042H16.5074L16.2693 1.9178H15.3904V3.91308C15.3904 4.18252 15.5252 4.25825 15.7038 4.25825C15.9804 4.25825 16.3901 4.05573 16.5616 3.90604L16.6579 4.72317C16.6579 4.72317 16.2412 5.10532 15.4272 5.10532C14.7934 5.10532 14.473 4.7672 14.473 3.89019V1.9178H14.0179V1.22042H14.473V0.552973L15.4727 0.440265L15.3974 1.22042Z" fill="var(--fill-0, #002E6E)"/>
<path id="Vector_5" d="M21.875 5.0067V2.8177C21.875 2.11328 21.7997 1.88786 21.4198 1.88786C20.8683 1.88786 20.4954 2.3158 20.4954 2.3158V4.378L20.5777 5.00846H19.5711V2.81946C19.5711 2.11504 19.4958 1.88962 19.1159 1.88962C18.5487 1.88962 18.1845 2.3246 18.1845 2.3246V4.36391L18.2668 5.00846H17.2602V1.98648L17.1551 1.22922L18.1845 1.11651V1.58143C18.5119 1.28205 18.9601 1.10947 19.3697 1.10947C19.7794 1.10947 20.1891 1.29614 20.3834 1.63427C20.3992 1.61137 20.8386 1.10947 21.6737 1.10947C22.2409 1.10947 22.7994 1.41765 22.7994 2.06925V4.378L22.8817 5.00846H21.875V5.0067Z" fill="var(--fill-0, #002E6E)"/>
<path id="Vector_6" d="M23.827 1.67829C23.827 1.67829 24.3785 1.10771 25.3852 1.10771C26.0032 1.10771 26.6597 1.36306 26.6597 2.14321V4.08567C26.6597 4.53474 27.0396 4.98557 27.0396 4.98557L26.1012 5.09123C26.1012 5.09123 25.9156 4.88167 25.8473 4.62631C25.5567 4.91865 25.1313 5.10532 24.7216 5.10532C24.0739 5.10532 23.6327 4.62631 23.6327 4.12265C23.6327 3.33545 24.4083 2.7138 25.7353 2.66801V2.52536C25.7353 2.00057 25.541 1.77515 25.2276 1.77515C24.6394 1.77515 24.2069 2.33693 24.2069 2.33693L23.827 1.67653V1.67829ZM25.7353 4.09271V3.32841C25.3694 3.35835 24.5868 3.44112 24.5868 4.0029C24.5868 4.21246 24.7286 4.41498 25.0263 4.41498C25.2574 4.41498 25.5707 4.25825 25.7353 4.09271Z" fill="var(--fill-0, #002E6E)"/>
<path id="Vector_7" d="M30.1908 5.0067V2.8177C30.1908 2.11327 30.1155 1.88786 29.7356 1.88786C29.1684 1.88786 28.8043 2.3158 28.8043 2.3158V4.36215L28.8866 5.0067H27.8799V1.98472L27.7749 1.22746L28.8043 1.11475V1.57263C29.1317 1.27325 29.5798 1.10771 29.9895 1.10771C30.5567 1.10771 31.1152 1.41589 31.1152 2.06749V4.37624L31.1975 5.0067H30.1908Z" fill="var(--fill-0, #002E6E)"/>
<path id="Vector_8" d="M2.16036 6.16372C3.05497 6.16372 3.91982 6.65858 3.91982 7.72402C3.91982 8.61688 3.07073 9.40408 1.90651 9.40408H1.69118V10.5294L1.77346 11.1739H0.723039V6.93683L0.617997 6.16372H2.16036ZM2.02556 8.65387C2.49475 8.65387 2.91317 8.25587 2.91317 7.72402C2.91317 7.15344 2.4965 6.89104 2.02556 6.89104H1.68943V8.65387H2.02556Z" fill="var(--fill-0, #002E6E)"/>
<path id="Vector_9" d="M7.60154 8.37562C7.60154 8.37562 7.38445 8.17309 7.10259 8.17309C6.71569 8.17309 6.2535 8.6521 6.2535 9.23854V10.5276L6.33578 11.1722H5.32913V8.15724L5.22409 7.39999L6.2535 7.28728V7.96881C6.2535 7.96881 6.6194 7.27143 7.26716 7.27143C7.49825 7.27143 7.70658 7.36124 7.88515 7.54968L7.60154 8.37385V8.37562Z" fill="var(--fill-0, #002E6E)"/>
<path id="Vector_10" d="M9.97899 10.5276L10.0613 11.1722H9.05462V8.14316L8.94958 7.3859L9.97899 7.27319V10.5276ZM9.50105 5.75163C9.76891 5.75163 10 5.98409 10 6.27643C10 6.55468 9.76891 6.77833 9.50105 6.77833C9.21744 6.77833 8.97934 6.55292 8.97934 6.27643C8.97934 5.98409 9.21744 5.75163 9.50105 5.75163Z" fill="var(--fill-0, #002E6E)"/>
<path id="Vector_11" d="M14.0774 11.1722V8.98318C14.0774 8.27876 14.0021 8.05334 13.6222 8.05334C13.055 8.05334 12.6908 8.48128 12.6908 8.48128V10.5276L12.7731 11.1722H11.7665V8.1502L11.6614 7.39294L12.6908 7.28024V7.73811C13.0182 7.43873 13.4664 7.27319 13.876 7.27319C14.4433 7.27319 15.0018 7.58138 15.0018 8.23297V10.5417L15.084 11.1722H14.0774Z" fill="var(--fill-0, #002E6E)"/>
<path id="Vector_12" d="M17.7293 7.3859H18.8393L18.6012 8.08328H17.7223V10.0786C17.7223 10.348 17.8571 10.4237 18.0357 10.4237C18.3123 10.4237 18.722 10.2212 18.8936 10.0715L18.9898 10.8887C18.9898 10.8887 18.5732 11.2708 17.7591 11.2708C17.1253 11.2708 16.805 10.9327 16.805 10.0557V8.08328H16.3498V7.3859H16.805V6.71846L17.8046 6.60575L17.7293 7.3859Z" fill="var(--fill-0, #002E6E)"/>
<path id="Vector_13" d="M21.0837 10.5276L21.166 11.1722H20.1593V8.14316L20.0543 7.3859L21.0837 7.27319V10.5276ZM20.6075 5.75163C20.8753 5.75163 21.1064 5.98409 21.1064 6.27643C21.1064 6.55468 20.8753 6.77833 20.6075 6.77833C20.3239 6.77833 20.0858 6.55292 20.0858 6.27643C20.0858 5.98409 20.3239 5.75163 20.6075 5.75163Z" fill="var(--fill-0, #002E6E)"/>
<path id="Vector_14" d="M25.1838 11.1722V8.98318C25.1838 8.27876 25.1085 8.05334 24.7286 8.05334C24.1614 8.05334 23.7973 8.48128 23.7973 8.48128V10.5276L23.8796 11.1722H22.8729V8.1502L22.7679 7.39294L23.7973 7.28024V7.73811C24.1246 7.43873 24.5728 7.27319 24.9825 7.27319C25.5497 7.27319 26.1082 7.58138 26.1082 8.23297V10.5417L26.1905 11.1722H25.1838Z" fill="var(--fill-0, #002E6E)"/>
<path id="Vector_15" d="M28.6187 10.1913C28.5224 10.2881 28.4629 10.3938 28.4629 10.4836C28.4629 11.0454 30.9821 10.1543 30.9821 11.6899C30.9821 12.574 29.9982 12.9949 29.0669 12.9949C27.7031 12.9949 27.4352 12.1918 27.4352 12.1918L27.9709 11.697C27.9709 11.697 28.209 12.3274 29.1492 12.3274C29.5816 12.3274 30.1103 12.2147 30.1103 11.8484C30.1103 11.1211 27.6873 12.0052 27.6873 10.783C27.6873 10.4836 27.9184 10.1913 28.1495 9.95881C27.8221 9.7422 27.5385 9.28433 27.5385 8.81236C27.5385 7.93535 28.216 7.27495 29.1632 7.27495C29.4695 7.27495 29.8267 7.42464 29.8932 7.48452L30.028 7.38766H31.1169L30.9611 7.96529H30.4394C30.618 8.19071 30.6933 8.46015 30.6933 8.75249C30.6933 9.64534 29.993 10.267 29.0826 10.267C28.7763 10.267 28.6204 10.1913 28.6204 10.1913H28.6187ZM29.1264 9.61364C29.4625 9.61364 29.7444 9.27552 29.7444 8.77362C29.7444 8.27171 29.4608 7.92655 29.1264 7.92655C28.792 7.92655 28.4856 8.26467 28.4856 8.77362C28.4856 9.28256 28.792 9.61364 29.1264 9.61364Z" fill="var(--fill-0, #002E6E)"/>
</g>
</svg>
