<svg preserveAspectRatio="none" width="100%" height="100%" overflow="visible" style="display: block;" viewBox="0 0 32.9639 9.26319" fill="none" xmlns="http://www.w3.org/2000/svg">
<g id="Group">
<path id="Vector" d="M17.2006 4.62191L21.4986 0.2985C21.8943 -0.0995001 22.5385 -0.0995001 22.9307 0.2985L27.2321 4.62191C27.6278 5.01991 28.2686 5.01991 28.6642 4.62191L32.9639 0.2985L28.6607 4.63248L24.3627 8.95413C23.9671 9.35213 23.3263 9.35213 22.9307 8.95413L18.631 4.63248C18.2353 4.23272 17.5945 4.23272 17.1989 4.63248V4.62191H17.2006Z" fill="url(#paint0_linear_1370_7447)"/>
<path id="Vector_2" d="M5.73354 4.636L10.0333 0.309067C10.4289 -0.0889335 11.0697 -0.0889335 11.4653 0.309067L15.7633 4.63424C16.1607 5.03224 16.8015 5.03224 17.1971 4.63424V4.62719V4.636L12.8974 8.95941V8.96469C12.5 9.36269 11.8575 9.36269 11.4618 8.96469L7.16387 4.64128C6.76821 4.24328 6.1292 4.23624 5.73354 4.63424V4.636Z" fill="url(#paint1_linear_1370_7447)"/>
<path id="Vector_3" d="M5.73529 4.63424L1.43557 8.96293C1.03816 9.36269 0.395658 9.36269 0 8.96469L4.30322 4.63248C4.69888 5.03048 5.33964 5.03048 5.73529 4.63248V4.63424Z" fill="var(--fill-0, #C41039)"/>
</g>
<defs>
<linearGradient id="paint0_linear_1370_7447" x1="22.2111" y1="-0.420014" x2="27.9803" y2="5.31342" gradientUnits="userSpaceOnUse">
<stop offset="0.08" stop-color="#C41039"/>
<stop offset="0.19" stop-color="white"/>
<stop offset="0.29" stop-color="#C41039"/>
</linearGradient>
<linearGradient id="paint1_linear_1370_7447" x1="8.39986" y1="1.54709" x2="14.574" y2="7.68494" gradientUnits="userSpaceOnUse">
<stop offset="0.08" stop-color="#C41039"/>
<stop offset="0.19" stop-color="white"/>
<stop offset="0.29" stop-color="#C41039"/>
</linearGradient>
</defs>
</svg>
