<svg preserveAspectRatio="none" width="100%" height="100%" overflow="visible" style="display: block;" viewBox="0 0 21 21" fill="none" xmlns="http://www.w3.org/2000/svg">
<g id="eva:arrow-ios-back-fill">
<path id="Vector" d="M12.1012 16.625C11.9705 16.6254 11.8414 16.5966 11.7233 16.5406C11.6052 16.4845 11.5011 16.4028 11.4188 16.3012L7.1925 11.0512C7.0638 10.8947 6.99345 10.6983 6.99345 10.4956C6.99345 10.293 7.0638 10.0966 7.1925 9.94L11.5675 4.69C11.716 4.51131 11.9294 4.39894 12.1608 4.37761C12.3922 4.35627 12.6226 4.42773 12.8013 4.57625C12.9799 4.72477 13.0923 4.93819 13.1136 5.16957C13.135 5.40094 13.0635 5.63131 12.915 5.81L9.00375 10.5L12.7837 15.19C12.8907 15.3184 12.9587 15.4748 12.9796 15.6407C13.0005 15.8065 12.9735 15.9749 12.9017 16.1259C12.8299 16.2768 12.7163 16.4041 12.5745 16.4925C12.4326 16.581 12.2684 16.627 12.1012 16.625Z" fill="var(--fill-0, #516278)"/>
</g>
</svg>
