<svg preserveAspectRatio="none" width="100%" height="100%" overflow="visible" style="display: block;" viewBox="0 0 173.366 59.8731" fill="none" xmlns="http://www.w3.org/2000/svg">
<g id="Group">
<path id="Vector" d="M111.774 33.287C111.372 37.0306 109.52 39.7977 106.836 41.507C104.797 42.8091 102.247 43.4875 99.5638 43.4875C96.8801 43.4875 92.2642 42.6193 90.01 39.9337C87.1386 36.4885 87.2728 32.0391 87.2994 27.8612V15.382C87.2994 14.8664 87.7019 14.4595 88.212 14.4595H88.5073C88.8562 14.4595 89.2317 14.4595 89.6076 14.5137C91.5128 14.6493 93.3915 15.1649 94.2504 16.0601C95.2702 17.1182 95.7802 18.8271 95.7802 21.1331V28.4848C95.7802 29.4615 95.7802 30.3025 95.8874 31.1162C95.941 31.5231 96.0216 31.93 96.1291 32.3369C96.3169 33.015 96.3974 33.395 96.6658 33.856C96.7729 34.0189 97.9002 35.8635 100.047 35.8635C100.181 35.8635 101.926 35.8635 102.973 34.5069C103.483 33.8557 103.59 33.2048 103.778 32.0653C103.992 30.7087 103.912 29.7866 103.831 28.186C103.778 27.2366 103.724 25.88 103.724 24.1979V15.354C103.724 15.11 103.831 14.8656 103.992 14.7028C104.153 14.5399 104.395 14.4315 104.636 14.4315H104.932C105.361 14.4315 105.791 14.4315 106.22 14.4857C108.018 14.6486 109.628 15.1638 110.46 16.0321C111.48 17.0902 112.016 18.7991 112.016 21.1051C112.016 25.12 112.258 29.2437 111.855 33.2586L111.775 33.2859L111.774 33.287Z" fill="var(--fill-0, #1D3C70)"/>
<path id="Vector_2" d="M148.782 33.287C148.379 37.0306 146.527 39.7977 143.844 41.507C141.804 42.8091 139.255 43.4875 136.571 43.4875C133.888 43.4875 129.272 42.6193 127.018 39.9337C124.146 36.4885 124.28 32.0391 124.307 27.8612V15.382C124.307 14.8664 124.709 14.4595 125.219 14.4595H125.515C125.864 14.4595 126.239 14.4595 126.615 14.5137C128.52 14.6493 130.399 15.1649 131.258 16.0601C132.278 17.1182 132.788 18.8271 132.788 21.1331V28.4848C132.788 29.4615 132.788 30.3025 132.895 31.1162C132.948 31.5231 133.029 31.93 133.137 32.3369C133.324 33.015 133.405 33.395 133.673 33.856C133.78 34.0189 134.908 35.8635 137.055 35.8635C137.189 35.8635 138.933 35.8635 139.98 34.5069C140.49 33.8557 140.597 33.2048 140.785 32.0653C141 30.7087 140.919 29.7866 140.839 28.186C140.785 27.2366 140.731 25.88 140.731 24.1979V15.354C140.731 15.11 140.839 14.8656 141 14.7028C141.161 14.5399 141.402 14.4315 141.644 14.4315H141.939C142.369 14.4315 142.798 14.4315 143.227 14.4857C145.025 14.6486 146.635 15.1638 147.467 16.0321C148.487 17.0902 149.024 18.7991 149.024 21.1051C149.024 25.12 149.265 29.2437 148.863 33.2586L148.782 33.2859L148.782 33.287Z" fill="var(--fill-0, #1D3C70)"/>
<g id="Group_2">
<path id="Vector_3" d="M41.5698 43.1618C44.1783 43.1618 46.2929 41.0241 46.2929 38.3873C46.2929 35.7504 44.1783 33.6128 41.5698 33.6128C38.9613 33.6128 36.8467 35.7504 36.8467 38.3873C36.8467 41.0241 38.9613 43.1618 41.5698 43.1618Z" fill="var(--fill-0, #CE1E50)"/>
<path id="Vector_4" d="M52.2508 37.6546C54.8593 37.6546 56.9739 35.517 56.9739 32.8801C56.9739 30.2432 54.8593 28.1056 52.2508 28.1056C49.6423 28.1056 47.5277 30.2432 47.5277 32.8801C47.5277 35.517 49.6423 37.6546 52.2508 37.6546Z" fill="var(--fill-0, #0DB04B)"/>
<path id="Vector_5" d="M50.4527 25.528C53.0612 25.528 55.1758 23.3904 55.1758 20.7535C55.1758 18.1166 53.0612 15.979 50.4527 15.979C47.8442 15.979 45.7296 18.1166 45.7296 20.7535C45.7296 23.3904 47.8442 25.528 50.4527 25.528Z" fill="var(--fill-0, #F9B516)"/>
<path id="Vector_6" d="M38.752 23.7918C41.3605 23.7918 43.4751 21.6542 43.4751 19.0173C43.4751 16.3804 41.3605 14.2428 38.752 14.2428C36.1435 14.2428 34.0289 16.3804 34.0289 19.0173C34.0289 21.6542 36.1435 23.7918 38.752 23.7918Z" fill="var(--fill-0, #F27026)"/>
<path id="Vector_7" d="M33.3307 34.5618C35.9392 34.5618 38.0538 32.4242 38.0538 29.7873C38.0538 27.1504 35.9392 25.0128 33.3307 25.0128C30.7222 25.0128 28.6076 27.1504 28.6076 29.7873C28.6076 32.4242 30.7222 34.5618 33.3307 34.5618Z" fill="var(--fill-0, #0288C9)"/>
</g>
<path id="Vector_8" d="M121.087 43.433H115.021C114.351 43.433 113.814 42.9174 113.814 42.2666V1.60059C113.814 0.732303 114.538 0 115.451 0C119.208 0 122.267 2.9572 122.267 6.59216V42.2393C122.267 42.8905 121.731 43.4057 121.06 43.4057L121.087 43.433H121.087Z" fill="var(--fill-0, #1D3C70)"/>
<g id="Group_3">
<path id="Vector_9" d="M58.9328 58.3539V58.6252C58.9328 58.7066 58.9328 58.815 58.9598 58.8964C59.0133 59.0593 59.0939 59.2218 59.2281 59.3306C59.3623 59.412 59.4964 59.4662 59.6576 59.4662H59.8187C59.3626 59.2764 59.0137 58.8695 58.9062 58.3539H58.9331H58.9328Z" fill="var(--fill-0, #1D3C70)"/>
<path id="Vector_10" d="M81.8515 17.7963C79.3557 15.5176 76.4037 14.378 71.4389 14.378H64.9713C63.844 14.378 62.7707 14.6766 61.8581 15.2463C60.1406 16.2772 58.9328 18.1221 58.9328 20.3466V58.3808C59.04 58.8964 59.3889 59.3033 59.8453 59.4931H59.6842C59.523 59.4931 59.3889 59.4389 59.2547 59.3575C59.55 59.6829 59.9791 59.8731 60.4892 59.8731C62.3139 59.8731 63.9512 59.2218 65.1587 58.1368C66.3395 57.0787 67.0909 55.5869 67.0909 53.959V52.874C67.0909 53.1725 67.0909 53.4707 67.0373 53.7423V44.4915C67.0373 44.41 67.0643 44.3017 67.0909 44.1929C67.1715 43.8944 67.3057 43.569 67.547 43.2705C67.574 43.2163 67.6276 43.189 67.6812 43.1348C68.1106 42.7007 68.7009 42.4836 69.3181 42.5109L70.6601 42.5651C75.4102 42.5651 78.4697 41.2357 81.3142 38.5771C84.159 35.9184 85.5812 32.4187 85.5812 28.0783C85.5812 23.738 84.3467 20.0754 81.8508 17.7694V17.7967L81.8515 17.7963ZM75.7325 33.3411C74.5786 34.4261 72.8341 34.969 70.5263 34.969H69.0771C68.0038 34.969 67.1179 34.0738 67.1179 32.9615V24.1176C67.1179 23.0053 68.0035 22.1101 69.0771 22.1101H70.5533C72.8881 22.1101 74.6056 22.6257 75.7595 23.6834C76.9133 24.7415 77.477 26.3421 77.477 28.4579C77.477 30.5737 76.8867 32.2558 75.7325 33.3411Z" fill="var(--fill-0, #1D3C70)"/>
<path id="Vector_11" d="M67.0907 44.2198V52.874C67.0907 53.1725 67.0907 53.4707 67.0377 53.7423V44.4915C67.0377 44.41 67.0644 44.3017 67.0907 44.1929V44.2202V44.2198Z" fill="var(--fill-0, #1D3C70)"/>
</g>
<g id="Group_4">
<path id="Vector_12" d="M0.02662 58.3539V58.6252C0.02662 58.7066 0.0266201 58.815 0.053595 58.8964C0.10719 59.0593 0.18776 59.2218 0.321925 59.3306C0.456089 59.412 0.590254 59.4662 0.751394 59.4662H0.912534C0.456445 59.2764 0.107545 58.8695 0 58.3539H0.026975H0.02662Z" fill="var(--fill-0, #1D3C70)"/>
<path id="Vector_13" d="M22.945 17.7963C20.4491 15.5176 17.4972 14.378 12.5323 14.378H6.06475C4.93748 14.378 3.86416 14.6766 2.95163 15.2463C1.2341 16.2772 0.0262653 18.1221 0.0262653 20.3466V58.3808C0.133455 58.8964 0.482355 59.3033 0.938799 59.4931H0.777659C0.616519 59.4931 0.482355 59.4389 0.34819 59.3575C0.643494 59.6829 1.07261 59.8731 1.58265 59.8731C3.40736 59.8731 5.04467 59.2218 6.25215 58.1368C7.43301 57.0787 8.18441 55.5869 8.18441 53.959V52.874C8.18441 53.1725 8.18441 53.4707 8.13081 53.7423V44.4915C8.13081 44.41 8.15779 44.3017 8.18441 44.1929C8.26498 43.8944 8.39914 43.569 8.6405 43.2705C8.66747 43.2163 8.72107 43.189 8.77466 43.1348C9.20413 42.7007 9.79439 42.4836 10.4116 42.5109L11.7536 42.5651C16.5037 42.5651 19.5632 41.2357 22.4077 38.5771C25.2524 35.9184 26.6747 32.4187 26.6747 28.0783C26.6747 23.738 25.4402 20.0754 22.9443 17.7694V17.7967L22.945 17.7963ZM16.8263 33.3411C15.6724 34.4261 13.9279 34.969 11.6202 34.969H10.171C9.09765 34.969 8.21174 34.0738 8.21174 32.9615V24.1176C8.21174 23.0053 9.0973 22.1101 10.171 22.1101H11.6471C13.9819 22.1101 15.6994 22.6257 16.8533 23.6834C18.0072 24.7415 18.5708 26.3421 18.5708 28.4579C18.5708 30.5737 17.9806 32.2558 16.8263 33.3411Z" fill="var(--fill-0, #1D3C70)"/>
<path id="Vector_14" d="M8.18452 44.2198V52.874C8.18452 53.1725 8.18452 53.4707 8.13152 53.7423V44.4915C8.13152 44.41 8.1582 44.3017 8.18452 44.1929V44.2202V44.2198Z" fill="var(--fill-0, #1D3C70)"/>
</g>
<path id="Vector_15" d="M171.646 19.37C171.7 19.1529 171.673 18.9631 171.593 18.7733C171.486 18.5293 171.244 18.3664 171.029 18.2308C168.426 16.4946 165.394 15.355 162.254 15.2736C157.745 15.138 151.975 17.5796 151.465 22.7341C151.304 24.3888 151.787 26.125 152.78 27.4544C154.847 30.2214 158.604 30.8995 161.636 32.5547C162.683 33.1244 163.783 34.128 163.569 35.3217C163.407 36.19 162.522 36.7594 161.69 36.9223C160.16 37.2477 158.63 36.6238 157.155 36.1355C155.678 35.6471 154.015 35.2403 152.619 35.9456C151.653 36.434 150.955 37.4106 150.606 38.4687C150.526 38.74 150.445 39.0112 150.499 39.2825C150.553 39.6624 150.848 39.9878 151.17 40.2318C151.841 40.7743 152.646 41.127 153.424 41.4525C155.625 42.3477 157.906 43.0258 160.268 43.2428C162.629 43.4599 165.045 43.1887 167.191 42.1848C168.936 41.3979 170.465 40.1231 171.431 38.4411C172.371 36.759 172.666 34.6974 172.022 32.8797C171.297 30.8181 169.472 29.3531 167.567 28.3223C165.662 27.2915 163.595 26.5861 161.77 25.4466C161.019 24.9855 159.918 23.9274 160.106 22.8966C160.562 20.5092 163.997 21.4589 165.42 21.9472C166.118 22.1912 166.896 22.3272 167.647 22.3814C168.372 22.4355 169.231 22.3272 169.875 21.9472C170.519 21.5672 170.922 20.8077 171.297 20.211C171.458 19.967 171.619 19.6685 171.673 19.3972L171.646 19.37H171.646Z" fill="var(--fill-0, #1D3C70)" stroke="var(--stroke-0, #1D3C70)" stroke-width="2" stroke-miterlimit="10"/>
</g>
</svg>
