<svg width="21" height="21" viewBox="0 0 21 21" fill="none" xmlns="http://www.w3.org/2000/svg">
<path d="M10.5 0C14.694 0 16.7913 -0.000191055 18.3018 0.999023C18.9763 1.44534 19.5547 2.02372 20.001 2.69824C21.0002 4.20874 21 6.30603 21 10.5C21 14.694 21.0002 16.7913 20.001 18.3018C19.5547 18.9763 18.9763 19.5547 18.3018 20.001C16.7913 21.0002 14.694 21 10.5 21C6.30603 21 4.20874 21.0002 2.69824 20.001C2.02372 19.5547 1.44534 18.9763 0.999023 18.3018C-0.000191056 16.7913 0 14.694 0 10.5C0 6.30603 -0.000191604 4.20874 0.999023 2.69824C1.44534 2.02372 2.02372 1.44534 2.69824 0.999023C4.20874 -0.000191605 6.30603 0 10.5 0ZM10.5 5.06445C7.49788 5.06445 5.06362 7.49791 5.06348 10.5C5.06348 13.5022 7.49779 15.9365 10.5 15.9365C13.5021 15.9364 15.9355 13.5021 15.9355 10.5C15.9354 7.49798 13.502 5.06455 10.5 5.06445ZM10.5 6.90332C12.4863 6.90342 14.0965 8.51371 14.0967 10.5C14.0967 12.4864 12.4864 14.0966 10.5 14.0967C8.51352 14.0967 6.90332 12.4865 6.90332 10.5C6.90346 8.51364 8.51361 6.90332 10.5 6.90332ZM16.1504 3.51367C15.4451 3.51372 14.8731 4.08569 14.873 4.79102C14.873 5.49641 15.445 6.06831 16.1504 6.06836C16.8558 6.06836 17.4277 5.49645 17.4277 4.79102C17.4276 4.08566 16.8558 3.51367 16.1504 3.51367Z" fill="#1ECAD3"/>
</svg>
