<svg width="21" height="20" viewBox="0 0 21 20" fill="none" xmlns="http://www.w3.org/2000/svg"><path d="M0 2.323Q0 1.313.71.657 1.417 0 2.553 0 3.67 0 4.358.646q.71.667.71 1.738 0 .97-.69 1.616-.71.667-1.864.667h-.02Q1.377 4.667.688 4 0 3.334 0 2.323M.264 20V6.505h4.5V20zm6.993 0h4.5v-7.535q0-.707.162-1.091.284-.687.861-1.162.579-.474 1.45-.475 2.27 0 2.27 3.05V20H21v-7.737q0-2.99-1.419-4.536t-3.75-1.545q-2.614 0-4.074 2.242v.04h-.02l.02-.04V6.505h-4.5q.04.646.04 4.02 0 3.375-.04 9.475" fill="#1ecad3"/></svg>