<svg width="42" height="42" viewBox="0 0 42 42" fill="none" xmlns="http://www.w3.org/2000/svg">
  <path d="M24.532 12.485v-.004h.984l.36.072q.36.07.653.183.294.114.568.265.275.151.498.308.222.155.398.33.174.175.544.09.368-.085.795-.236.426-.152.842-.34.417-.19.508-.24l.095-.058.003-.005.02-.01.018-.01.02-.009.018-.01.004-.005.006-.004.005-.003.004-.006.019-.006.019-.004-.004.029-.005.028-.01.029-.01.028-.009.019-.01.019-.009.028-.019.076a3 3 0 0 1-.18.378 5 5 0 0 1-.426.671q-.255.34-.458.515-.204.176-.27.245a.8.8 0 0 1-.162.133l-.094.062-.02.01-.018.01-.004.005-.006.004-.005.003-.004.006-.02.01-.018.009-.004.006-.006.003-.005.004-.004.006-.004.005-.006.004-.005.004-.004.006h.095l.53-.114a10 10 0 0 0 1.013-.274l.511-.17.057-.019.029-.01.018-.009.02-.01.018-.009.02-.01.037-.005.038-.004v.038l-.01.004-.009.006-.004.005-.005.004-.006.004-.004.005-.004.006-.005.004-.006.004-.004.005-.004.006-.005.004-.01.019-.01.019-.005.003-.24.322q-.237.318-.256.321-.019.006-.053.057-.032.053-.401.422a10 10 0 0 1-.724.656q-.355.29-.36.711-.005.42-.043.95-.038.529-.142 1.143-.105.615-.322 1.39a12.6 12.6 0 0 1-1.184 2.837q-.34.585-.625.992-.283.407-.577.766a11 11 0 0 1-.742.81l-.493.491q-.043.042-.37.31-.326.27-.701.541a8 8 0 0 1-.686.448q-.312.18-.754.41a9 9 0 0 1-.95.432q-.51.198-1.08.369a10 10 0 0 1-1.098.264q-.53.095-1.202.161l-.672.066v.01h-1.231v-.01l-.161-.01-.265-.018q-.105-.01-.786-.104a11 11 0 0 1-1.07-.19 14 14 0 0 1-1.155-.359 11 11 0 0 1-1.312-.535 52 52 0 0 1-.682-.34 5 5 0 0 1-.307-.174l-.17-.104-.004-.006-.006-.003-.006-.004-.003-.006-.02-.01-.018-.009-.004-.006-.006-.003-.005-.004-.004-.006-.004-.005-.006-.004H10.5v-.038l.019.004.019.005.085.01q.086.01.464.028a8.6 8.6 0 0 0 1.676-.085 10 10 0 0 0 1.05-.227 8 8 0 0 0 1.114-.382q.505-.223.72-.332.212-.108.647-.401l.436-.293.004-.006.005-.004.006-.004.004-.005.004-.006.005-.004.006-.004.004-.005.019-.006.019-.004.003-.019.006-.019.006-.003.004-.006-.152-.01-.293-.018a3 3 0 0 1-.445-.085 4 4 0 0 1-.654-.228q-.35-.15-.681-.359a3.4 3.4 0 0 1-.48-.346 8 8 0 0 1-.378-.386 4 4 0 0 1-.402-.516 5 5 0 0 1-.325-.61l-.158-.345-.009-.028-.01-.029-.005-.018-.004-.02.028.005.029.005.208.028q.21.03.654.02t.615-.038a4 4 0 0 0 .208-.038l.038-.01.047-.01.048-.009.004-.005.005-.004.006-.004.004-.006-.038-.009-.038-.01-.038-.009-.038-.01-.038-.009-.132-.038a7 7 0 0 1-.511-.208 4 4 0 0 1-.663-.35 5 5 0 0 1-.47-.372 5 5 0 0 1-.486-.526 3.8 3.8 0 0 1-.474-.747 4.5 4.5 0 0 1-.312-.813 4.4 4.4 0 0 1-.137-.784l-.034-.398.02.004.018.006.02.01.018.009.019.01.019.009.293.132q.294.132.73.227.435.095.52.104l.085.01h.17l-.003-.006-.006-.004-.005-.004-.004-.005-.004-.006-.006-.004-.005-.004-.004-.005-.019-.01-.019-.01-.004-.005-.005-.004-.006-.003-.004-.006-.019-.01-.019-.01-.003-.005-.163-.12a2.5 2.5 0 0 1-.326-.309 11 11 0 0 1-.341-.397 3 3 0 0 1-.303-.445 5 5 0 0 1-.28-.6 4.3 4.3 0 0 1-.307-1.46q-.01-.36.019-.615t.114-.577.246-.68l.16-.36.01-.028.01-.029.005-.004.004-.005.004-.006.006-.004.005.004.004.006.004.005.005.004.006.004.004.006.004.005.005.004.01.02.01.018.005.004.004.005.255.284q.255.284.607.634.35.35.388.363.037.015.094.087.057.07.38.334.321.265.842.615t1.155.69 1.363.615 1.023.359 1.003.217 1.07.17.493.044l.132.004-.004-.029-.005-.028-.038-.236a4.4 4.4 0 0 1-.038-.662q0-.425.066-.785T21 15.27t.26-.592q.128-.221.336-.505a4 4 0 0 1 .54-.586 4 4 0 0 1 .758-.539q.426-.236.785-.359t.606-.16.247-.044" fill="#1ecad3"/>
</svg>
