<svg width="24" height="17" viewBox="0 0 24 17" fill="none" xmlns="http://www.w3.org/2000/svg"><path d="m12.062 16.308-4.74-.089c-1.534-.03-3.072.031-4.577-.289-2.288-.477-2.45-2.82-2.62-4.785a34.3 34.3 0 0 1 .298-8.314C.673 1.293 1.653.376 3.168.276c5.116-.362 10.266-.319 15.371-.15.54.016 1.082.1 1.614.197 2.624.47 2.688 3.124 2.858 5.36a31 31 0 0 1-.226 6.769c-.26 1.856-.758 3.413-2.858 3.563-2.632.197-5.203.355-7.843.305 0-.012-.015-.012-.022-.012m-2.786-4.7c1.983-1.164 3.928-2.308 5.9-3.464-1.987-1.164-3.929-2.308-5.9-3.464z" fill="#1ecad3"/></svg>