<svg preserveAspectRatio="none" width="100%" height="100%" overflow="visible" style="display: block;" viewBox="0 0 180 48" fill="none" xmlns="http://www.w3.org/2000/svg">
<g id="Reacon Logo 2">
<path id="Vector" d="M129.978 35.004C123.426 35.004 118.296 31.152 114 27.54L113.61 27.21L113.214 27.54C108.918 31.14 103.788 35.004 97.242 35.004C96.55 35.0023 95.8587 34.9582 95.172 34.872C88.662 34.05 83.772 29.376 83.772 24C83.772 18.624 88.68 13.95 95.172 13.128C95.8584 13.039 96.5499 12.995 97.242 12.996C100.339 13.0407 103.375 13.8662 106.068 15.396L102.522 18.756C100.896 17.8831 99.087 17.4062 97.242 17.364C92.838 17.364 89.256 20.364 89.256 24.024C89.256 27.684 92.856 30.684 97.242 30.684C101.628 30.684 105.798 27.474 109.356 24.468L115.056 19.614C119.256 16.194 123.966 13.014 129.978 13.014C130.668 13.0127 131.358 13.0568 132.042 13.146C138.552 13.968 143.442 18.642 143.442 24.018C143.442 29.394 138.534 34.068 132.042 34.89C131.357 34.9702 130.668 35.0082 129.978 35.004ZM129.978 17.34C125.586 17.34 121.416 20.55 117.858 23.556L117.33 24L117.858 24.444C121.416 27.444 125.586 30.66 129.978 30.66C134.37 30.66 137.958 27.66 137.958 24C137.958 20.34 134.4 17.34 129.978 17.34Z" fill="var(--fill-0, #1ECAD3)"/>
<path id="Vector_2" d="M161.16 13.392C155.916 13.392 152.124 15.288 150.156 18.894V14.43C150.155 14.3926 150.147 14.3557 150.131 14.3218C150.115 14.2879 150.093 14.2578 150.064 14.2334C150.036 14.209 150.003 14.1909 149.967 14.1803C149.931 14.1697 149.893 14.1669 149.856 14.172L144.912 14.838C144.848 14.8455 144.79 14.877 144.749 14.9261C144.708 14.9751 144.687 15.038 144.69 15.102V33.702C144.689 33.7369 144.695 33.7716 144.708 33.804C144.721 33.8364 144.741 33.8658 144.765 33.8905C144.79 33.9152 144.82 33.9346 144.852 33.9476C144.884 33.9606 144.919 33.9668 144.954 33.966H150C150.035 33.9669 150.069 33.9606 150.101 33.9475C150.133 33.9345 150.162 33.915 150.187 33.8902C150.211 33.8654 150.23 33.8359 150.242 33.8036C150.254 33.7712 150.26 33.7366 150.258 33.702V25.398C150.258 20.712 153.456 17.85 158.658 17.628C164.868 17.37 166.986 21.156 166.986 25.692V33.684C166.984 33.7183 166.99 33.7526 167.002 33.7847C167.014 33.8168 167.033 33.8459 167.058 33.8703C167.082 33.8946 167.111 33.9135 167.143 33.9259C167.175 33.9382 167.21 33.9437 167.244 33.942H172.266C172.3 33.9428 172.334 33.9367 172.366 33.924C172.397 33.9114 172.426 33.8924 172.45 33.8683C172.474 33.8441 172.493 33.8154 172.506 33.7837C172.519 33.752 172.525 33.7181 172.524 33.684V24.354C172.56 17.154 168.618 13.392 161.19 13.392" fill="var(--fill-0, #1ECAD3)"/>
<path id="Vector_3" d="M30.6 22.086C31.044 18.816 34.428 16.8 39.408 16.8C44.28 16.8 48.108 18.774 48.18 22.116L30.6 22.086ZM53.79 24.168C53.79 17.478 48.39 13.428 39.39 13.428C30.876 13.428 25.116 17.256 25.116 24.318C25.098 30.858 30.636 34.8 39.666 34.8C45.912 34.8 50.298 33 53.01 29.634C53.0389 29.5995 53.0593 29.5587 53.0696 29.5149C53.0799 29.4712 53.0798 29.4256 53.0693 29.3818C53.0588 29.3381 53.0382 29.2974 53.0091 29.263C52.9801 29.2287 52.9434 29.2016 52.902 29.184L49.038 27.384C48.9815 27.3592 48.9187 27.3529 48.8584 27.3658C48.7981 27.3787 48.7434 27.4103 48.702 27.456C46.902 29.688 43.83 30.84 39.816 30.84C34.314 30.84 31.008 28.836 30.564 25.44H53.496C53.5351 25.44 53.5738 25.4322 53.6099 25.4171C53.646 25.4019 53.6787 25.3797 53.706 25.3518C53.7334 25.3238 53.7549 25.2907 53.7694 25.2544C53.7838 25.218 53.7908 25.1791 53.79 25.14V24.168Z" fill="var(--fill-0, #1ECAD3)"/>
<path id="Vector_4" d="M76.914 25.506C76.914 29.148 72.792 31.38 66.954 31.38C63.018 31.38 60.858 30.414 60.858 28.518C60.858 26.622 62.274 25.656 66.954 25.356L76.914 24.756V25.506ZM82.452 27.438V22.2C82.452 16.512 78.252 13.536 69.63 13.536C61.938 13.536 56.694 16.326 55.728 20.598C55.7221 20.6435 55.7267 20.6898 55.7416 20.7332C55.7564 20.7767 55.7809 20.8162 55.8134 20.8486C55.8458 20.8811 55.8853 20.9056 55.9288 20.9204C55.9722 20.9353 56.0185 20.9399 56.064 20.934L62.124 19.734C62.196 19.734 62.232 19.698 62.274 19.62C63.426 18.024 65.952 17.166 69.63 17.166C74.13 17.166 76.83 18.69 76.83 21.408V21.852L65.382 22.452C60.774 22.716 58.782 23.418 57.318 24.384C56.6016 24.8567 56.0174 25.5041 55.6206 26.2652C55.2237 27.0263 55.0274 27.876 55.05 28.734C55.05 32.64 58.764 34.83 64.932 34.83C71.1 34.83 74.97 33.234 76.98 30.144C76.9712 31.3756 77.0454 32.6064 77.202 33.828C77.2119 33.8895 77.2432 33.9455 77.2904 33.9861C77.3377 34.0268 77.3977 34.0494 77.46 34.05H82.518C82.5592 34.0506 82.5999 34.0416 82.6369 34.0237C82.674 34.0058 82.7063 33.9795 82.7314 33.9468C82.7565 33.9142 82.7736 33.8761 82.7813 33.8357C82.789 33.7953 82.7872 33.7536 82.776 33.714C82.5264 31.6298 82.4261 29.5305 82.476 27.432" fill="var(--fill-0, #1ECAD3)"/>
<path id="Vector_5" d="M12.402 19.968V14.508C12.4001 14.4628 12.3886 14.4185 12.3682 14.3782C12.3479 14.3378 12.3191 14.3022 12.2839 14.2738C12.2487 14.2454 12.2078 14.2248 12.1641 14.2135C12.1203 14.2022 12.0746 14.2003 12.03 14.208L7.68 14.838C7.60894 14.8505 7.5444 14.8872 7.49736 14.9419C7.45032 14.9966 7.42369 15.0659 7.422 15.138V33.684C7.4212 33.7231 7.42822 33.762 7.44263 33.7984C7.45705 33.8347 7.47858 33.8678 7.50596 33.8958C7.53334 33.9237 7.56602 33.9459 7.60209 33.9611C7.63815 33.9762 7.67688 33.984 7.716 33.984H12.66C12.6996 33.9848 12.739 33.9776 12.7758 33.9628C12.8125 33.948 12.8459 33.926 12.874 33.898C12.902 33.8699 12.924 33.8365 12.9388 33.7998C12.9536 33.763 12.9608 33.7236 12.96 33.684V27.03C12.96 24.354 13.56 22.122 15.078 20.598C16.38 19.2 18.162 18.444 21 18.444C21.8471 18.4397 22.6927 18.5141 23.526 18.666C23.5702 18.6747 23.6158 18.6737 23.6596 18.6631C23.7034 18.6525 23.7443 18.6326 23.7797 18.6047C23.815 18.5767 23.8439 18.5415 23.8643 18.5013C23.8848 18.4611 23.8962 18.417 23.898 18.372V13.986C23.9015 13.9125 23.8767 13.8405 23.8287 13.7847C23.7807 13.7289 23.7132 13.6936 23.64 13.686C22.8897 13.5709 22.1309 13.5207 21.372 13.536C16.908 13.536 13.572 16.068 12.414 19.968" fill="var(--fill-0, #1ECAD3)"/>
</g>
</svg>
