<svg preserveAspectRatio="none" width="100%" height="100%" overflow="visible" style="display: block;" viewBox="0 0 639 235" fill="none" xmlns="http://www.w3.org/2000/svg">
<path id="Vector" d="M494.815 234.997C424.651 234.997 369.714 193.866 323.709 155.298L319.532 151.774L315.291 155.298C269.286 193.738 214.349 234.997 144.249 234.997C136.838 234.978 129.435 234.507 122.081 233.587C52.3665 224.81 0 174.902 0 117.498C0 60.0947 52.5593 10.1868 122.081 1.40966C129.432 0.459801 136.837 -0.0110164 144.249 0.000195598C177.415 0.477651 209.924 9.29195 238.766 25.6269L200.792 61.5042C183.379 52.1836 164.007 47.0912 144.249 46.6407C97.0869 46.6407 58.7276 78.674 58.7276 117.755C58.7276 156.835 97.2797 188.869 144.249 188.869C191.218 188.869 235.874 154.593 273.976 122.496L335.017 70.6657C379.995 34.1477 430.434 0.1924 494.815 0.1924C502.206 0.179037 509.59 0.649868 516.919 1.60186C586.634 10.379 639 60.2869 639 117.691C639 175.094 586.441 225.002 516.919 233.779C509.583 234.635 502.201 235.042 494.815 234.997ZM494.815 46.3844C447.782 46.3844 403.126 80.6601 365.023 112.757L359.369 117.498L365.023 122.239C403.126 154.273 447.782 188.612 494.815 188.612C541.849 188.612 580.272 156.579 580.272 117.498C580.272 78.4178 542.17 46.3844 494.815 46.3844Z" fill="var(--fill-0, #F6F7F9)"/>
</svg>
