<svg width="240" height="64" viewBox="0 0 240 64" fill="none" xmlns="http://www.w3.org/2000/svg">
<path d="M173.304 46.6721C164.568 46.6721 157.728 41.5362 152 36.7202L151.48 36.2801L150.952 36.7202C145.224 41.5202 138.384 46.6721 129.656 46.6721C128.733 46.6698 127.812 46.611 126.896 46.4961C118.216 45.4001 111.696 39.1681 111.696 32.0001C111.696 24.8321 118.24 18.6001 126.896 17.5041C127.811 17.3855 128.733 17.3267 129.656 17.3281C133.785 17.3878 137.833 18.4884 141.424 20.5281L136.696 25.0081C134.528 23.8443 132.116 23.2084 129.656 23.1522C123.784 23.1522 119.008 27.1522 119.008 32.0322C119.008 36.9122 123.808 40.9121 129.656 40.9121C135.504 40.9121 141.064 36.6321 145.808 32.6241L153.408 26.1521C159.008 21.5921 165.288 17.3521 173.304 17.3521C174.224 17.3505 175.144 17.4093 176.056 17.5281C184.736 18.6241 191.256 24.8561 191.256 32.0241C191.256 39.1921 184.712 45.4242 176.056 46.5202C175.143 46.627 174.224 46.6778 173.304 46.6721ZM173.304 23.1201C167.448 23.1201 161.888 27.4001 157.144 31.4081L156.44 32.0001L157.144 32.5922C161.888 36.5922 167.448 40.8801 173.304 40.8801C179.16 40.8801 183.944 36.8801 183.944 32.0001C183.944 27.1201 179.2 23.1201 173.304 23.1201Z" fill="#1ECAD3"/>
<path d="M214.88 17.856C207.888 17.856 202.832 20.384 200.208 25.192V19.24C200.207 19.1901 200.196 19.1409 200.175 19.0957C200.154 19.0505 200.123 19.0103 200.085 18.9778C200.048 18.9453 200.003 18.9211 199.956 18.907C199.908 18.8929 199.857 18.8892 199.808 18.896L193.216 19.784C193.131 19.794 193.053 19.836 192.998 19.9014C192.943 19.9668 192.915 20.0506 192.92 20.136V44.936C192.919 44.9825 192.927 45.0287 192.945 45.0719C192.962 45.1152 192.988 45.1544 193.021 45.1873C193.054 45.2202 193.093 45.2461 193.136 45.2634C193.179 45.2807 193.225 45.2891 193.272 45.288H200C200.046 45.2891 200.092 45.2807 200.135 45.2633C200.178 45.246 200.216 45.2199 200.249 45.1869C200.281 45.1539 200.306 45.1145 200.322 45.0714C200.339 45.0282 200.346 44.9821 200.344 44.936V33.864C200.344 27.616 204.608 23.8 211.544 23.504C219.824 23.16 222.648 28.208 222.648 34.256V44.912C222.646 44.9577 222.653 45.0035 222.669 45.0463C222.686 45.089 222.711 45.1279 222.744 45.1603C222.776 45.1927 222.815 45.218 222.858 45.2344C222.9 45.2509 222.946 45.2583 222.992 45.256H229.688C229.733 45.2571 229.779 45.2489 229.821 45.232C229.863 45.2151 229.901 45.1898 229.934 45.1576C229.966 45.1255 229.991 45.0871 230.008 45.0449C230.025 45.0027 230.033 44.9574 230.032 44.912V32.472C230.08 22.872 224.824 17.856 214.92 17.856" fill="#1ECAD3"/>
<path d="M40.8001 29.4478C41.3921 25.0878 45.9041 22.3998 52.5441 22.3998C59.0401 22.3998 64.1441 25.0318 64.2401 29.4878L40.8001 29.4478ZM71.7201 32.2238C71.7201 23.3038 64.5201 17.9038 52.5201 17.9038C41.1681 17.9038 33.4881 23.0078 33.4881 32.4238C33.4641 41.1438 40.8481 46.3998 52.8881 46.3998C61.2161 46.3998 67.0641 43.9998 70.6801 39.5118C70.7186 39.4658 70.7458 39.4115 70.7596 39.3531C70.7733 39.2947 70.7732 39.2339 70.7592 39.1756C70.7452 39.1172 70.7177 39.063 70.679 39.0172C70.6402 38.9714 70.5913 38.9353 70.5361 38.9118L65.3841 36.5118C65.3088 36.4788 65.225 36.4703 65.1446 36.4875C65.0642 36.5048 64.9913 36.5468 64.9361 36.6078C62.5361 39.5838 58.4401 41.1198 53.0881 41.1198C45.7521 41.1198 41.3441 38.4478 40.7521 33.9198H71.3281C71.3803 33.9198 71.4319 33.9094 71.48 33.8892C71.5281 33.869 71.5716 33.8394 71.6081 33.8022C71.6446 33.7649 71.6734 33.7208 71.6926 33.6723C71.7118 33.6238 71.7212 33.572 71.7201 33.5198V32.2238Z" fill="#1ECAD3"/>
<path d="M102.552 34.0079C102.552 38.8639 97.056 41.8399 89.272 41.8399C84.024 41.8399 81.144 40.5519 81.144 38.0239C81.144 35.4959 83.032 34.2079 89.272 33.8079L102.552 33.0079V34.0079ZM109.936 36.5839V29.5999C109.936 22.0159 104.336 18.0479 92.84 18.0479C82.584 18.0479 75.592 21.7679 74.304 27.4639C74.2962 27.5245 74.3024 27.5862 74.3221 27.6442C74.3419 27.7021 74.3746 27.7547 74.4179 27.798C74.4612 27.8413 74.5138 27.874 74.5717 27.8938C74.6297 27.9135 74.6914 27.9197 74.752 27.9119L82.832 26.3119C82.928 26.3119 82.976 26.2639 83.032 26.1599C84.568 24.0319 87.936 22.8879 92.84 22.8879C98.84 22.8879 102.44 24.9199 102.44 28.5439V29.1359L87.176 29.9359C81.032 30.2879 78.376 31.2239 76.424 32.5119C75.4688 33.1421 74.6899 34.0054 74.1608 35.0202C73.6317 36.035 73.3699 37.1678 73.4 38.3119C73.4 43.5199 78.352 46.4398 86.576 46.4398C94.8 46.4398 99.96 44.3119 102.64 40.1919C102.628 41.834 102.727 43.475 102.936 45.1039C102.949 45.1858 102.991 45.2605 103.054 45.3147C103.117 45.3689 103.197 45.399 103.28 45.3999H110.024C110.079 45.4007 110.133 45.3887 110.183 45.3648C110.232 45.3409 110.275 45.3058 110.309 45.2623C110.342 45.2187 110.365 45.168 110.375 45.1141C110.385 45.0602 110.383 45.0046 110.368 44.9518C110.035 42.173 109.902 39.3738 109.968 36.5759" fill="#1ECAD3"/>
<path d="M16.5361 26.624V19.344C16.5335 19.2838 16.5182 19.2247 16.491 19.1709C16.4639 19.117 16.4256 19.0696 16.3786 19.0317C16.3317 18.9939 16.2772 18.9665 16.2188 18.9513C16.1604 18.9362 16.0995 18.9337 16.0401 18.944L10.2401 19.784C10.1453 19.8006 10.0593 19.8496 9.99656 19.9225C9.93384 19.9954 9.89833 20.0878 9.89608 20.184V44.912C9.89501 44.9642 9.90437 45.016 9.92359 45.0645C9.94281 45.113 9.97152 45.1571 10.008 45.1944C10.0445 45.2316 10.0881 45.2612 10.1362 45.2814C10.1843 45.3016 10.2359 45.312 10.2881 45.312H16.8801C16.9329 45.3131 16.9854 45.3035 17.0344 45.2838C17.0835 45.2641 17.128 45.2346 17.1653 45.1973C17.2027 45.1599 17.2321 45.1154 17.2518 45.0664C17.2716 45.0173 17.2812 44.9648 17.2801 44.912V36.04C17.2801 32.472 18.0801 29.496 20.1041 27.464C21.8401 25.6 24.2161 24.592 28.0001 24.592C29.1295 24.5863 30.257 24.6854 31.3681 24.888C31.427 24.8996 31.4878 24.8983 31.5462 24.8842C31.6046 24.8701 31.6592 24.8435 31.7063 24.8062C31.7535 24.769 31.792 24.7219 31.8192 24.6684C31.8464 24.6149 31.8617 24.556 31.8641 24.496V18.648C31.8687 18.55 31.8356 18.454 31.7716 18.3796C31.7077 18.3052 31.6177 18.2581 31.5201 18.248C30.5197 18.0945 29.508 18.0276 28.4961 18.048C22.5441 18.048 18.0961 21.424 16.5521 26.624" fill="#1ECAD3"/>
</svg>
